<?xml version="1.0" encoding="UTF-8" standalone="no"?>
<svg
   version="1.1"
   viewBox="0 0 550.68024 578.88574"
   fill="none"
   stroke="none"
   stroke-linecap="square"
   stroke-miterlimit="10"
   id="svg39"
   width="550.68024"
   height="578.88574"
   xmlns="http://www.w3.org/2000/svg"
   xmlns:svg="http://www.w3.org/2000/svg">
  <defs
     id="defs39">
    <clipPath
       clipPathUnits="userSpaceOnUse"
       id="clipPath41">
      <rect
         style="opacity:0;fill:#000000;fill-opacity:1"
         id="rect42"
         width="550.68024"
         height="578.88574"
         x="488.89655"
         y="69.842361" />
    </clipPath>
  </defs>
  <clipPath
     id="p18.0">
    <path
       d="M 0,0 H 1280 V 720 H 0 Z"
       clip-rule="nonzero"
       id="path1" />
  </clipPath>
  <g
     clip-path="url(#clipPath41)"
     id="g39"
     transform="translate(-488.89655,-69.842361)">
    <defs
       id="defs32">
      <mask
         id="mask-p18.1"
         maskUnits="userSpaceOnUse"
         x="496.81795275590554"
         y="407.31695538057744"
         width="105.70078740157481"
         height="89.1968503937008">
        <linearGradient
           gradientUnits="userSpaceOnUse"
           id="gradient-p18.1"
           x1="496.81796"
           y1="407.31659"
           x2="496.81787"
           y2="434.07574">
          <stop
             offset="0%"
             stop-color="#ffffff"
             stop-opacity="1.0"
             id="stop31" />
          <stop
             offset="100%"
             stop-color="#ffffff"
             stop-opacity="0.0"
             id="stop32" />
        </linearGradient>
        <rect
           fill="url(#gradient-p18.1)"
           x="496.81796"
           y="407.31696"
           width="105.70079"
           height="89.196854"
           id="rect32" />
      </mask>
    </defs>
    <defs
       id="defs34">
      <mask
         id="mask-p18.2"
         maskUnits="userSpaceOnUse"
         x="531.1791076115486"
         y="407.31695538057744"
         width="105.70078740157476"
         height="89.1968503937008">
        <linearGradient
           gradientUnits="userSpaceOnUse"
           id="gradient-p18.2"
           x1="531.17908"
           y1="407.31659"
           x2="531.17902"
           y2="434.07574">
          <stop
             offset="0%"
             stop-color="#ffffff"
             stop-opacity="1.0"
             id="stop33" />
          <stop
             offset="100%"
             stop-color="#ffffff"
             stop-opacity="0.0"
             id="stop34" />
        </linearGradient>
        <rect
           fill="url(#gradient-p18.2)"
           x="531.17908"
           y="407.31696"
           width="105.70079"
           height="89.196854"
           id="rect34" />
      </mask>
    </defs>
    <path
       fill="#00c1d4"
       d="m 504.15958,360 v 0 c 0,-31.31064 25.38229,-56.6929 56.6929,-56.6929 v 0 c 15.03589,0 29.45599,5.97296 40.08795,16.60495 10.63202,10.63199 16.60498,25.05206 16.60498,40.08795 v 0 c 0,31.31064 -25.38226,56.6929 -56.69293,56.6929 v 0 c -31.31061,0 -56.6929,-25.38226 -56.6929,-56.6929 z"
       fill-rule="evenodd"
       id="path3" />
    <path
       fill="#ff7e15"
       d="m 703.668,149.32956 v 0 c 0,-31.31064 25.38226,-56.692917 56.69293,-56.692917 v 0 c 15.03589,0 29.45593,5.972984 40.08795,16.604967 10.63196,10.63199 16.60492,25.05205 16.60492,40.08795 v 0 c 0,31.31062 -25.38226,56.6929 -56.69287,56.6929 v 0 c -31.31067,0 -56.69293,-25.38228 -56.69293,-56.6929 z"
       fill-rule="evenodd"
       id="path5" />
    <path
       stroke="#ffffff"
       stroke-width="1"
       stroke-linejoin="round"
       stroke-linecap="butt"
       d="m 703.668,149.32956 v 0 c 0,-31.31064 25.38226,-56.692917 56.69293,-56.692917 v 0 c 15.03589,0 29.45593,5.972984 40.08795,16.604967 10.63196,10.63199 16.60492,25.05205 16.60492,40.08795 v 0 c 0,31.31062 -25.38226,56.6929 -56.69287,56.6929 v 0 c -31.31067,0 -56.69293,-25.38228 -56.69293,-56.6929 z"
       fill-rule="evenodd"
       id="path6" />
    <path
       fill="#ff4f4f"
       d="m 903.1764,360 v 0 c 0,-31.31064 25.38226,-56.6929 56.69287,-56.6929 v 0 c 15.03595,0 29.45599,5.97296 40.08793,16.60495 10.632,10.63199 16.605,25.05206 16.605,40.08795 v 0 c 0,31.31064 -25.38226,56.6929 -56.69293,56.6929 v 0 c -31.31061,0 -56.69287,-25.38226 -56.69287,-56.6929 z"
       fill-rule="evenodd"
       id="path7" />
    <path
       stroke="#ffffff"
       stroke-width="1"
       stroke-linejoin="round"
       stroke-linecap="butt"
       d="m 903.1764,360 v 0 c 0,-31.31064 25.38226,-56.6929 56.69287,-56.6929 v 0 c 15.03595,0 29.45599,5.97296 40.08793,16.60495 10.632,10.63199 16.605,25.05206 16.605,40.08795 v 0 c 0,31.31064 -25.38226,56.6929 -56.69293,56.6929 v 0 c -31.31061,0 -56.69287,-25.38226 -56.69287,-56.6929 z"
       fill-rule="evenodd"
       id="path8" />
    <path
       fill="#000000"
       fill-opacity="0"
       d="M 711.9573,196.31474 609.91006,315.36987"
       fill-rule="evenodd"
       id="path9" />
    <path
       stroke="#ffffff"
       stroke-width="3"
       stroke-miterlimit="800"
       stroke-linecap="butt"
       d="M 711.9573,196.31476 624.55282,298.28659"
       fill-rule="evenodd"
       id="path10" />
    <path
       fill="#ffffff"
       stroke="#ffffff"
       stroke-width="3"
       stroke-linecap="butt"
       d="m 619.547,293.99588 -6.78278,18.04413 16.79444,-9.46271 z"
       fill-rule="evenodd"
       id="path11" />
    <path
       fill="#000000"
       fill-opacity="0"
       d="M 630.8799,360 H 888.86605"
       fill-rule="evenodd"
       id="path12" />
    <path
       stroke="#ffffff"
       stroke-width="3"
       stroke-miterlimit="800"
       stroke-linecap="butt"
       d="M 630.8799,360 H 866.3661"
       fill-rule="evenodd"
       id="path13" />
    <path
       fill="#ffffff"
       stroke="#ffffff"
       stroke-width="3"
       stroke-linecap="butt"
       d="M 866.3661,366.59308 884.48036,360 866.3661,353.40692 Z"
       fill-rule="evenodd"
       id="path14" />
    <path
       fill="#000000"
       fill-opacity="0"
       d="M 809.4607,196.31474 911.50794,315.36987"
       fill-rule="evenodd"
       id="path15" />
    <path
       stroke="#ffffff"
       stroke-width="3"
       stroke-miterlimit="800"
       stroke-linecap="butt"
       d="m 809.4607,196.31476 87.40448,101.97183"
       fill-rule="evenodd"
       id="path16" />
    <path
       fill="#ffffff"
       stroke="#ffffff"
       stroke-width="3"
       stroke-linecap="butt"
       d="m 891.8593,302.5773 16.79443,9.46271 -6.78277,-18.04413 z"
       fill-rule="evenodd"
       id="path17" />
    <path
       fill="#7200fe"
       d="m 703.668,580.37836 v 0 c 0,-31.31061 25.38226,-56.69287 56.69293,-56.69287 v 0 c 15.03589,0 29.45593,5.97296 40.08795,16.60492 10.63196,10.63202 16.60492,25.05206 16.60492,40.08795 v 0 c 0,31.31067 -25.38226,56.69293 -56.69287,56.69293 v 0 c -31.31067,0 -56.69293,-25.38226 -56.69293,-56.69293 z"
       fill-rule="evenodd"
       id="path18" />
    <path
       stroke="#ffffff"
       stroke-width="1"
       stroke-linejoin="round"
       stroke-linecap="butt"
       d="m 703.668,580.37836 v 0 c 0,-31.31061 25.38226,-56.69287 56.69293,-56.69287 v 0 c 15.03589,0 29.45593,5.97296 40.08795,16.60492 10.63196,10.63202 16.60492,25.05206 16.60492,40.08795 v 0 c 0,31.31067 -25.38226,56.69293 -56.69287,56.69293 v 0 c -31.31067,0 -56.69293,-25.38226 -56.69293,-56.69293 z"
       fill-rule="evenodd"
       id="path19" />
    <path
       fill="#ffffff"
       d="m 731.69934,567.6315 h 3.82812 q 1.125,0 1.67188,0.0937 0.5625,0.0937 1,0.40625 0.4375,0.29687 0.73437,0.79687 0.29688,0.5 0.29688,1.10938 0,0.67187 -0.35938,1.23437 -0.35937,0.5625 -0.98437,0.84375 0.875,0.25 1.34375,0.85938 0.46875,0.60937 0.46875,1.4375 0,0.65625 -0.3125,1.26562 -0.29688,0.60938 -0.82813,0.98438 -0.51562,0.35937 -1.28125,0.45312 -0.48437,0.0469 -2.32812,0.0625 h -3.25 z m 1.9375,1.59375 v 2.20312 h 1.26562 q 1.125,0 1.39063,-0.0312 0.5,-0.0625 0.78125,-0.34375 0.28125,-0.28125 0.28125,-0.73437 0,-0.45313 -0.25,-0.71875 -0.23438,-0.28125 -0.71875,-0.34375 -0.28125,-0.0312 -1.64063,-0.0312 z m 0,3.79687 v 2.54688 h 1.78125 q 1.04687,0 1.3125,-0.0625 0.4375,-0.0781 0.70312,-0.375 0.26563,-0.29688 0.26563,-0.8125 0,-0.42188 -0.20313,-0.71875 -0.20312,-0.3125 -0.60937,-0.4375 -0.39063,-0.14063 -1.70313,-0.14063 z m 12.21887,4.15625 v -1.03125 q -0.375,0.54688 -1,0.875 -0.60937,0.3125 -1.28125,0.3125 -0.70312,0 -1.26562,-0.29687 -0.54688,-0.3125 -0.79688,-0.85938 -0.23437,-0.5625 -0.23437,-1.53125 v -4.375 h 1.82812 v 3.17188 q 0,1.45312 0.0937,1.78125 0.10938,0.32812 0.375,0.53125 0.26563,0.1875 0.67188,0.1875 0.46875,0 0.84375,-0.25 0.375,-0.26563 0.5,-0.64063 0.14062,-0.39062 0.14062,-1.875 v -2.90625 h 1.82813 v 6.90625 z m 2.95386,-1.96875 1.82812,-0.28125 q 0.125,0.53125 0.48438,0.8125 0.35937,0.26563 1,0.26563 0.70312,0 1.0625,-0.25 0.25,-0.1875 0.25,-0.48438 0,-0.21875 -0.14063,-0.35937 -0.125,-0.125 -0.60937,-0.23438 -2.20313,-0.48437 -2.79688,-0.89062 -0.82812,-0.5625 -0.82812,-1.5625 0,-0.89063 0.70312,-1.5 0.71875,-0.60938 2.20313,-0.60938 1.42187,0 2.10937,0.46875 0.70313,0.45313 0.95313,1.35938 l -1.71875,0.3125 q -0.10938,-0.40625 -0.42188,-0.60938 -0.3125,-0.21875 -0.89062,-0.21875 -0.71875,0 -1.03125,0.20313 -0.20313,0.14062 -0.20313,0.35937 0,0.20313 0.1875,0.34375 0.23438,0.17188 1.6875,0.51563 1.46875,0.32812 2.0625,0.8125 0.5625,0.48437 0.5625,1.35937 0,0.95313 -0.79687,1.64063 -0.78125,0.67187 -2.34375,0.67187 -1.40625,0 -2.23438,-0.5625 -0.82812,-0.57812 -1.07812,-1.5625 z m 8.0531,-5.875 v -1.70312 h 1.82813 v 1.70312 z m 0,7.84375 v -6.90625 h 1.82813 v 6.90625 z m 9.99988,0 h -1.82813 v -3.53125 q 0,-1.10937 -0.125,-1.4375 -0.10937,-0.32812 -0.375,-0.51562 -0.26562,-0.1875 -0.64062,-0.1875 -0.46875,0 -0.85938,0.26562 -0.375,0.26563 -0.51562,0.70313 -0.14063,0.42187 -0.14063,1.57812 v 3.125 h -1.82812 v -6.90625 h 1.70312 v 1.01563 q 0.90625,-1.17188 2.28125,-1.17188 0.60938,0 1.10938,0.21875 0.5,0.21875 0.75,0.5625 0.26562,0.32813 0.35937,0.76563 0.10938,0.42187 0.10938,1.21875 z m 5.84448,-2.20312 1.82813,0.3125 q -0.34375,1 -1.10938,1.53125 -0.76562,0.51562 -1.89062,0.51562 -1.8125,0 -2.67188,-1.17187 -0.6875,-0.95313 -0.6875,-2.39063 0,-1.71875 0.89063,-2.6875 0.90625,-0.96875 2.28125,-0.96875 1.54687,0 2.4375,1.01563 0.89062,1.01562 0.84375,3.125 h -4.57813 q 0.0156,0.8125 0.4375,1.26562 0.42188,0.45313 1.0625,0.45313 0.42188,0 0.71875,-0.23438 0.29688,-0.23437 0.4375,-0.76562 z m 0.10938,-1.84375 q -0.0156,-0.79688 -0.40625,-1.20313 -0.39063,-0.42187 -0.95313,-0.42187 -0.59375,0 -0.98437,0.4375 -0.39063,0.4375 -0.39063,1.1875 z m 2.66247,2.07812 1.82813,-0.28125 q 0.125,0.53125 0.48437,0.8125 0.35938,0.26563 1,0.26563 0.70313,0 1.0625,-0.25 0.25,-0.1875 0.25,-0.48438 0,-0.21875 -0.14062,-0.35937 -0.125,-0.125 -0.60938,-0.23438 -2.20312,-0.48437 -2.79687,-0.89062 -0.82813,-0.5625 -0.82813,-1.5625 0,-0.89063 0.70313,-1.5 0.71875,-0.60938 2.20312,-0.60938 1.42188,0 2.10938,0.46875 0.70312,0.45313 0.95312,1.35938 l -1.71875,0.3125 q -0.10937,-0.40625 -0.42187,-0.60938 -0.3125,-0.21875 -0.89063,-0.21875 -0.71875,0 -1.03125,0.20313 -0.20312,0.14062 -0.20312,0.35937 0,0.20313 0.1875,0.34375 0.23437,0.17188 1.6875,0.51563 1.46875,0.32812 2.0625,0.8125 0.5625,0.48437 0.5625,1.35937 0,0.95313 -0.79688,1.64063 -0.78125,0.67187 -2.34375,0.67187 -1.40625,0 -2.23437,-0.5625 -0.82813,-0.57812 -1.07813,-1.5625 z m 7.41248,0 1.82812,-0.28125 q 0.125,0.53125 0.48438,0.8125 0.35937,0.26563 1,0.26563 0.70312,0 1.0625,-0.25 0.25,-0.1875 0.25,-0.48438 0,-0.21875 -0.14063,-0.35937 -0.125,-0.125 -0.60937,-0.23438 -2.20313,-0.48437 -2.79688,-0.89062 -0.82812,-0.5625 -0.82812,-1.5625 0,-0.89063 0.70312,-1.5 0.71875,-0.60938 2.20313,-0.60938 1.42187,0 2.10937,0.46875 0.70313,0.45313 0.95313,1.35938 l -1.71875,0.3125 q -0.10938,-0.40625 -0.42188,-0.60938 -0.3125,-0.21875 -0.89062,-0.21875 -0.71875,0 -1.03125,0.20313 -0.20313,0.14062 -0.20313,0.35937 0,0.20313 0.1875,0.34375 0.23438,0.17188 1.6875,0.51563 1.46875,0.32812 2.0625,0.8125 0.5625,0.48437 0.5625,1.35937 0,0.95313 -0.79687,1.64063 -0.78125,0.67187 -2.34375,0.67187 -1.40625,0 -2.23438,-0.5625 -0.82812,-0.57812 -1.07812,-1.5625 z"
       fill-rule="nonzero"
       id="path20" />
    <path
       fill="#ffffff"
       d="m 740.3087,593.17834 h -2.09375 l -0.84375,-2.17187 h -3.8125 l -0.78125,2.17187 h -2.04687 l 3.71875,-9.54687 h 2.03125 z m -3.54687,-3.78125 -1.3125,-3.53125 -1.29688,3.53125 z m 10.84387,3.78125 h -1.82813 v -3.53125 q 0,-1.10937 -0.125,-1.4375 -0.10937,-0.32812 -0.375,-0.51562 -0.26562,-0.1875 -0.64062,-0.1875 -0.46875,0 -0.85938,0.26562 -0.375,0.26563 -0.51562,0.70313 -0.14063,0.42187 -0.14063,1.57812 v 3.125 h -1.82812 v -6.90625 h 1.70312 v 1.01563 q 0.90625,-1.17188 2.28125,-1.17188 0.60938,0 1.10938,0.21875 0.5,0.21875 0.75,0.5625 0.26562,0.32813 0.35937,0.76563 0.10938,0.42187 0.10938,1.21875 z m 3.21948,-4.79687 -1.67188,-0.3125 q 0.28125,-1 0.96875,-1.46875 0.6875,-0.48438 2.03125,-0.48438 1.21875,0 1.8125,0.29688 0.60938,0.28125 0.84375,0.73437 0.25,0.4375 0.25,1.625 l -0.0156,2.14063 q 0,0.90625 0.0781,1.34375 0.0937,0.42187 0.34375,0.92187 h -1.8125 q -0.0781,-0.1875 -0.17187,-0.54687 -0.0469,-0.15625 -0.0781,-0.20313 -0.46875,0.45313 -1,0.6875 -0.53125,0.21875 -1.14062,0.21875 -1.0625,0 -1.6875,-0.57812 -0.60938,-0.57813 -0.60938,-1.46875 0,-0.57813 0.28125,-1.03125 0.28125,-0.46875 0.78125,-0.70313 0.51563,-0.25 1.46875,-0.4375 1.28125,-0.23437 1.76563,-0.45312 v -0.17188 q 0,-0.53125 -0.26563,-0.75 -0.25,-0.23437 -0.96875,-0.23437 -0.48437,0 -0.76562,0.20312 -0.26563,0.1875 -0.4375,0.67188 z m 2.4375,1.48437 q -0.34375,0.10938 -1.10938,0.28125 -0.76562,0.15625 -1,0.3125 -0.35937,0.25 -0.35937,0.64063 0,0.39062 0.28125,0.67187 0.29687,0.28125 0.73437,0.28125 0.5,0 0.95313,-0.32812 0.32812,-0.25 0.4375,-0.60938 0.0625,-0.23437 0.0625,-0.89062 z m 3.59998,3.3125 v -9.54687 h 1.82812 v 9.54687 z m 2.84362,-6.90625 h 1.9375 l 1.65625,4.90625 1.60938,-4.90625 h 1.90625 l -2.45313,6.64063 -0.42187,1.20312 q -0.25,0.60938 -0.46875,0.92188 -0.21875,0.32812 -0.5,0.51562 -0.28125,0.20313 -0.70313,0.3125 -0.40625,0.125 -0.92187,0.125 -0.53125,0 -1.03125,-0.125 l -0.17188,-1.42187 q 0.4375,0.0781 0.78125,0.0781 0.64063,0 0.9375,-0.375 0.3125,-0.375 0.46875,-0.95312 z m 11.44373,0 v 1.45313 h -1.25 v 2.78125 q 0,0.84375 0.0312,0.98437 0.0469,0.14063 0.17187,0.23438 0.125,0.0937 0.3125,0.0937 0.25,0 0.73438,-0.17188 l 0.15625,1.42188 q -0.64063,0.26562 -1.45313,0.26562 -0.48437,0 -0.89062,-0.15625 -0.39063,-0.17187 -0.57813,-0.4375 -0.1875,-0.26562 -0.26562,-0.71875 -0.0469,-0.3125 -0.0469,-1.28125 v -3.01562 h -0.84375 v -1.45313 h 0.84375 v -1.375 l 1.82813,-1.07812 v 2.45312 z m 1.26648,-0.9375 v -1.70312 h 1.82812 v 1.70312 z m 0,7.84375 v -6.90625 h 1.82812 v 6.90625 z m 9.73425,-4.875 -1.79687,0.32813 q -0.0937,-0.53125 -0.42188,-0.79688 -0.32812,-0.28125 -0.82812,-0.28125 -0.6875,0 -1.09375,0.46875 -0.40625,0.46875 -0.40625,1.57813 0,1.23437 0.40625,1.75 0.42187,0.5 1.10937,0.5 0.53125,0 0.85938,-0.29688 0.32812,-0.29687 0.46875,-1.03125 l 1.79687,0.3125 q -0.28125,1.23438 -1.07812,1.875 -0.79688,0.625 -2.125,0.625 -1.51563,0 -2.42188,-0.95312 -0.90625,-0.95313 -0.90625,-2.65625 0,-1.70313 0.90625,-2.65625 0.90625,-0.95313 2.45313,-0.95313 1.26562,0 2,0.54688 0.75,0.53125 1.07812,1.64062 z m 0.7406,2.90625 1.82813,-0.28125 q 0.125,0.53125 0.48437,0.8125 0.35938,0.26563 1,0.26563 0.70313,0 1.0625,-0.25 0.25,-0.1875 0.25,-0.48438 0,-0.21875 -0.14062,-0.35937 -0.125,-0.125 -0.60938,-0.23438 -2.20312,-0.48437 -2.79687,-0.89062 -0.82813,-0.5625 -0.82813,-1.5625 0,-0.89063 0.70313,-1.5 0.71875,-0.60938 2.20312,-0.60938 1.42188,0 2.10938,0.46875 0.70312,0.45313 0.95312,1.35938 l -1.71875,0.3125 q -0.10937,-0.40625 -0.42187,-0.60938 -0.3125,-0.21875 -0.89063,-0.21875 -0.71875,0 -1.03125,0.20313 -0.20312,0.14062 -0.20312,0.35937 0,0.20313 0.1875,0.34375 0.23437,0.17188 1.6875,0.51563 1.46875,0.32812 2.0625,0.8125 0.5625,0.48437 0.5625,1.35937 0,0.95313 -0.79688,1.64063 -0.78125,0.67187 -2.34375,0.67187 -1.40625,0 -2.23437,-0.5625 -0.82813,-0.57812 -1.07813,-1.5625 z"
       fill-rule="nonzero"
       id="path21" />
    <path
       fill="#000000"
       fill-opacity="0"
       d="M 707.6428,533.15845 605.59556,414.10331"
       fill-rule="evenodd"
       id="path22" />
    <path
       stroke="#ffffff"
       stroke-width="3"
       stroke-miterlimit="800"
       stroke-linecap="butt"
       d="M 693,516.07513 605.59558,414.1033"
       fill-rule="evenodd"
       id="path23" />
    <path
       fill="#ffffff"
       stroke="#ffffff"
       stroke-width="3"
       stroke-linecap="butt"
       d="m 687.99414,520.36584 16.79449,9.46271 -6.78283,-18.04413 z"
       fill-rule="evenodd"
       id="path24" />
    <path
       fill="#000000"
       fill-opacity="0"
       d="M 809.4607,533.15845 911.50794,414.10331"
       fill-rule="evenodd"
       id="path25" />
    <path
       stroke="#ffffff"
       stroke-width="3"
       stroke-miterlimit="800"
       stroke-linecap="butt"
       d="M 824.1035,516.07513 911.50792,414.1033"
       fill-rule="evenodd"
       id="path26" />
    <path
       fill="#ffffff"
       stroke="#ffffff"
       stroke-width="3"
       stroke-linecap="butt"
       d="m 819.0977,511.78445 -6.78284,18.0441 16.7945,-9.46271 z"
       fill-rule="evenodd"
       id="path27" />
    <path
       fill="#000000"
       fill-opacity="0"
       d="m 686.5511,104.73218 h 105.70081 v 89.19685 H 686.5511 Z"
       fill-rule="evenodd"
       id="path28" />
    <path
       fill="#ffffff"
       d="m 749.3466,155.0131 8.23437,2.60937 q -1.89062,6.875 -6.29687,10.21875 -4.39063,3.32813 -11.15625,3.32813 -8.35938,0 -13.75,-5.71875 -5.375,-5.71875 -5.375,-15.625 0,-10.48438 5.40625,-16.28125 5.42187,-5.79687 14.23437,-5.79687 7.70313,0 12.51563,4.54687 2.875,2.70312 4.29687,7.73437 l -8.39062,2.01563 q -0.75,-3.26563 -3.10938,-5.15625 -2.35937,-1.89063 -5.73437,-1.89063 -4.67188,0 -7.57813,3.35938 -2.90625,3.34375 -2.90625,10.84375 0,7.95312 2.85938,11.34375 2.85937,3.375 7.45312,3.375 3.375,0 5.8125,-2.14063 2.4375,-2.15625 3.48438,-6.76562 z"
       fill-rule="nonzero"
       id="path29" />
    <path
       fill="#000000"
       fill-opacity="0"
       d="m 733.7829,107.118 h 105.70081 v 89.19685 H 733.7829 Z"
       fill-rule="evenodd"
       id="path30" />
    <path
       fill="#ffffff"
       d="m 772.09625,157.5458 q 0.10938,0.32813 0.14063,0.51563 0.0312,0.1875 -0.0781,0.29687 -0.0937,0.0937 -0.35937,0.10938 -0.25,0.0156 -0.6875,0.0156 -0.46875,0 -0.73438,-0.0156 -0.25,0 -0.39062,-0.0312 -0.14063,-0.0469 -0.20313,-0.125 -0.0469,-0.0781 -0.0781,-0.1875 l -0.79688,-2.375 h -4.42187 l -0.75,2.3125 q -0.0312,0.125 -0.0937,0.21875 -0.0625,0.0781 -0.20313,0.125 -0.125,0.0469 -0.375,0.0625 -0.23437,0.0156 -0.625,0.0156 -0.42187,0 -0.65625,-0.0312 -0.23437,-0.0156 -0.32812,-0.10937 -0.0937,-0.10938 -0.0625,-0.29688 0.0312,-0.20312 0.14062,-0.51562 l 3.64063,-10.46875 q 0.0469,-0.15625 0.10937,-0.25 0.0781,-0.0937 0.23438,-0.14063 0.17187,-0.0469 0.45312,-0.0625 0.28125,-0.0156 0.75,-0.0156 0.53125,0 0.84375,0.0156 0.32813,0.0156 0.5,0.0625 0.1875,0.0469 0.25,0.15625 0.0781,0.0937 0.14063,0.26563 z M 766.69,148.90518 h -0.0156 l -1.65625,5 h 3.34375 z m 16.36084,5.14062 q 0,1.07813 -0.32812,1.9375 -0.3125,0.85938 -0.9375,1.45313 -0.60938,0.59375 -1.53125,0.90625 -0.90625,0.29687 -2.09375,0.29687 -1.10938,0 -2,-0.26562 -0.875,-0.28125 -1.48438,-0.84375 -0.60937,-0.5625 -0.9375,-1.40625 -0.3125,-0.84375 -0.3125,-1.98438 v -7.15625 q 0,-0.0937 0.0469,-0.17187 0.0625,-0.0781 0.20312,-0.10938 0.14063,-0.0469 0.35938,-0.0781 0.23437,-0.0312 0.59375,-0.0312 0.34375,0 0.5625,0.0312 0.23437,0.0312 0.35937,0.0781 0.14063,0.0312 0.20313,0.10938 0.0625,0.0781 0.0625,0.17187 v 6.95313 q 0,0.70312 0.17187,1.21875 0.17188,0.51562 0.5,0.85937 0.32813,0.32813 0.76563,0.5 0.45312,0.15625 1.01562,0.15625 0.5625,0 1,-0.17187 0.45313,-0.17188 0.76563,-0.5 0.3125,-0.32813 0.46875,-0.8125 0.17187,-0.5 0.17187,-1.10938 v -7.09375 q 0,-0.0937 0.0469,-0.17187 0.0625,-0.0781 0.20312,-0.10938 0.14063,-0.0469 0.35938,-0.0781 0.23437,-0.0312 0.59375,-0.0312 0.34375,0 0.5625,0.0312 0.21875,0.0312 0.35937,0.0781 0.14063,0.0312 0.1875,0.10938 0.0625,0.0781 0.0625,0.17187 z m 9.53876,0.85938 q 0,0.92187 -0.34375,1.625 -0.34375,0.70312 -0.9375,1.17187 -0.59375,0.46875 -1.39063,0.70313 -0.78125,0.23437 -1.6875,0.23437 -0.60937,0 -1.14062,-0.0937 -0.51563,-0.0937 -0.92188,-0.23437 -0.39062,-0.14063 -0.67187,-0.29688 -0.26563,-0.15625 -0.39063,-0.26562 -0.10937,-0.125 -0.15625,-0.34375 -0.0469,-0.23438 -0.0469,-0.65625 0,-0.28125 0.0156,-0.46875 0.0156,-0.1875 0.0469,-0.3125 0.0469,-0.125 0.10937,-0.17188 0.0781,-0.0469 0.17188,-0.0469 0.125,0 0.35937,0.15625 0.23438,0.14062 0.59375,0.32812 0.35938,0.1875 0.85938,0.34375 0.51562,0.14063 1.1875,0.14063 0.4375,0 0.78125,-0.10938 0.34375,-0.10937 0.57812,-0.29687 0.25,-0.1875 0.375,-0.46875 0.125,-0.28125 0.125,-0.625 0,-0.40625 -0.21875,-0.6875 -0.21875,-0.29688 -0.57812,-0.51563 -0.34375,-0.21875 -0.79688,-0.40625 -0.4375,-0.20312 -0.90625,-0.42187 -0.46875,-0.21875 -0.92187,-0.5 -0.45313,-0.28125 -0.79688,-0.67188 -0.34375,-0.39062 -0.5625,-0.90625 -0.21875,-0.53125 -0.21875,-1.26562 0,-0.85938 0.3125,-1.5 0.3125,-0.64063 0.84375,-1.0625 0.53125,-0.42188 1.25,-0.625 0.73438,-0.21875 1.54688,-0.21875 0.40625,0 0.82812,0.0625 0.42188,0.0625 0.78125,0.17187 0.375,0.10938 0.65625,0.25 0.28125,0.14063 0.35938,0.23438 0.0937,0.0781 0.125,0.15625 0.0469,0.0625 0.0625,0.17187 0.0156,0.0937 0.0312,0.25 0.0156,0.15625 0.0156,0.40625 0,0.26563 -0.0156,0.45313 -0.0156,0.17187 -0.0469,0.29687 -0.0312,0.10938 -0.0937,0.17188 -0.0625,0.0469 -0.15625,0.0469 -0.10937,0 -0.32812,-0.125 -0.21875,-0.125 -0.53125,-0.28125 -0.3125,-0.15625 -0.73438,-0.26562 -0.42187,-0.125 -0.92187,-0.125 -0.39063,0 -0.6875,0.0937 -0.28125,0.0937 -0.48438,0.26562 -0.20312,0.17188 -0.29687,0.40625 -0.0937,0.23438 -0.0937,0.5 0,0.39063 0.21875,0.6875 0.21875,0.28125 0.57812,0.5 0.35938,0.21875 0.8125,0.42188 0.45313,0.1875 0.92188,0.40625 0.48437,0.21875 0.9375,0.5 0.45312,0.28125 0.79687,0.67187 0.35938,0.375 0.57813,0.90625 0.21875,0.51563 0.21875,1.23438 z m 11.26202,2.64062 q 0.10938,0.32813 0.14063,0.51563 0.0312,0.1875 -0.0781,0.29687 -0.0937,0.0937 -0.35937,0.10938 -0.25,0.0156 -0.6875,0.0156 -0.46875,0 -0.73438,-0.0156 -0.25,0 -0.39062,-0.0312 -0.14063,-0.0469 -0.20313,-0.125 -0.0469,-0.0781 -0.0781,-0.1875 l -0.79688,-2.375 h -4.42187 l -0.75,2.3125 q -0.0312,0.125 -0.0937,0.21875 -0.0625,0.0781 -0.20313,0.125 -0.125,0.0469 -0.375,0.0625 -0.23437,0.0156 -0.625,0.0156 -0.42187,0 -0.65625,-0.0312 -0.23437,-0.0156 -0.32812,-0.10937 -0.0937,-0.10938 -0.0625,-0.29688 0.0312,-0.20312 0.14062,-0.51562 l 3.64063,-10.46875 q 0.0469,-0.15625 0.10937,-0.25 0.0781,-0.0937 0.23438,-0.14063 0.17187,-0.0469 0.45312,-0.0625 0.28125,-0.0156 0.75,-0.0156 0.53125,0 0.84375,0.0156 0.32813,0.0156 0.5,0.0625 0.1875,0.0469 0.25,0.15625 0.0781,0.0937 0.14063,0.26563 z m -5.40625,-8.64062 h -0.0156 l -1.65625,5 h 3.34375 z m 13.53925,8.53125 q 0,0.26562 -0.0312,0.45312 -0.0156,0.1875 -0.0625,0.3125 -0.0469,0.125 -0.125,0.1875 -0.0625,0.0469 -0.15625,0.0469 h -5.39063 q -0.3125,0 -0.51562,-0.17188 -0.20313,-0.1875 -0.20313,-0.57812 V 146.9833 q 0,-0.0937 0.0625,-0.17187 0.0625,-0.0781 0.1875,-0.10938 0.14063,-0.0469 0.375,-0.0781 0.23438,-0.0312 0.57813,-0.0312 0.35937,0 0.57812,0.0312 0.23438,0.0312 0.375,0.0781 0.14063,0.0312 0.1875,0.10938 0.0625,0.0781 0.0625,0.17187 v 9.46875 h 3.70313 q 0.0937,0 0.15625,0.0625 0.0781,0.0469 0.125,0.15625 0.0469,0.10938 0.0625,0.29688 0.0312,0.1875 0.0312,0.46875 z"
       fill-rule="nonzero"
       id="path31" />
    <g
       id="p18.1"
       transform="translate(-6)">
      <path
         fill="#000000"
         fill-opacity="0"
         d="m 496.81796,314.12012 h 105.70077 v 89.19684 H 496.81796 Z"
         fill-rule="evenodd"
         id="path32" />
      <path
         fill="#ffffff"
         d="m 532.7229,337.85416 h 15.5 q 5.23437,0 7.98437,0.79687 3.70313,1.09375 6.32813,3.875 2.64062,2.76563 4.01562,6.79688 1.375,4.01562 1.375,9.92187 0,5.1875 -1.28125,8.9375 -1.57812,4.57813 -4.5,7.42188 -2.20312,2.14062 -5.95312,3.34375 -2.8125,0.89062 -7.51563,0.89062 H 532.7229 Z m 8.48437,7.09375 v 27.8125 h 6.32813 q 3.54687,0 5.125,-0.39063 2.0625,-0.51562 3.42187,-1.75 1.35938,-1.23437 2.21875,-4.04687 0.85938,-2.82813 0.85938,-7.70313 0,-4.85937 -0.85938,-7.46875 -0.85937,-2.60937 -2.40625,-4.0625 -1.54687,-1.46875 -3.92187,-1.98437 -1.78125,-0.40625 -6.95313,-0.40625 z"
         fill-rule="nonzero"
         id="path33" />
    </g>
    <g
       id="p18.2"
       transform="translate(-6)">
      <path
         fill="#000000"
         fill-opacity="0"
         d="m 531.1791,314.12012 h 105.70081 v 89.19684 H 531.1791 Z"
         fill-rule="evenodd"
         id="path34" />
      <path
         fill="#ffffff"
         d="m 580.5065,364.5479 q 0.10937,0.32813 0.14062,0.51563 0.0312,0.1875 -0.0781,0.29687 -0.0937,0.0937 -0.35938,0.10938 -0.25,0.0156 -0.6875,0.0156 -0.46875,0 -0.73437,-0.0156 -0.25,0 -0.39063,-0.0312 -0.14062,-0.0469 -0.20312,-0.125 -0.0469,-0.0781 -0.0781,-0.1875 l -0.79687,-2.375 h -4.42188 l -0.75,2.3125 q -0.0312,0.125 -0.0937,0.21875 -0.0625,0.0781 -0.20312,0.125 -0.125,0.0469 -0.375,0.0625 -0.23438,0.0156 -0.625,0.0156 -0.42188,0 -0.65625,-0.0312 -0.23438,-0.0156 -0.32813,-0.10937 -0.0937,-0.10938 -0.0625,-0.29688 0.0312,-0.20312 0.14063,-0.51562 l 3.64062,-10.46875 q 0.0469,-0.15625 0.10938,-0.25 0.0781,-0.0937 0.23437,-0.14063 0.17188,-0.0469 0.45313,-0.0625 0.28125,-0.0156 0.75,-0.0156 0.53125,0 0.84375,0.0156 0.32812,0.0156 0.5,0.0625 0.1875,0.0469 0.25,0.15625 0.0781,0.0937 0.14062,0.26563 z m -5.40625,-8.64062 h -0.0156 l -1.65625,5 h 3.34375 z m 13.44031,-1.26563 q 0,0.25 -0.0312,0.4375 -0.0156,0.1875 -0.0625,0.3125 -0.0469,0.10938 -0.10938,0.17188 -0.0625,0.0469 -0.15625,0.0469 h -2.9375 v 9.5 q 0,0.0937 -0.0625,0.17188 -0.0625,0.0625 -0.20312,0.10937 -0.14063,0.0469 -0.375,0.0625 -0.21875,0.0312 -0.5625,0.0312 -0.35938,0 -0.59375,-0.0312 -0.21875,-0.0156 -0.35938,-0.0625 -0.14062,-0.0469 -0.20312,-0.10937 -0.0469,-0.0781 -0.0469,-0.17188 v -9.5 h -2.95312 q -0.0937,0 -0.15625,-0.0469 -0.0625,-0.0625 -0.10938,-0.17188 -0.0469,-0.125 -0.0781,-0.3125 -0.0156,-0.1875 -0.0156,-0.4375 0,-0.28125 0.0156,-0.46875 0.0312,-0.1875 0.0781,-0.29687 0.0469,-0.125 0.10938,-0.17188 0.0625,-0.0469 0.15625,-0.0469 h 8.29687 q 0.0937,0 0.15625,0.0469 0.0625,0.0469 0.10938,0.17188 0.0469,0.10937 0.0625,0.29687 0.0312,0.1875 0.0312,0.46875 z m 9.58209,9.90625 q 0.10937,0.32813 0.14062,0.51563 0.0312,0.1875 -0.0781,0.29687 -0.0937,0.0937 -0.35938,0.10938 -0.25,0.0156 -0.6875,0.0156 -0.46875,0 -0.73437,-0.0156 -0.25,0 -0.39063,-0.0312 -0.14062,-0.0469 -0.20312,-0.125 -0.0469,-0.0781 -0.0781,-0.1875 l -0.79687,-2.375 h -4.42188 l -0.75,2.3125 q -0.0312,0.125 -0.0937,0.21875 -0.0625,0.0781 -0.20312,0.125 -0.125,0.0469 -0.375,0.0625 -0.23438,0.0156 -0.625,0.0156 -0.42188,0 -0.65625,-0.0312 -0.23438,-0.0156 -0.32813,-0.10937 -0.0937,-0.10938 -0.0625,-0.29688 0.0312,-0.20312 0.14063,-0.51562 l 3.64062,-10.46875 q 0.0469,-0.15625 0.10938,-0.25 0.0781,-0.0937 0.23437,-0.14063 0.17188,-0.0469 0.45313,-0.0625 0.28125,-0.0156 0.75,-0.0156 0.53125,0 0.84375,0.0156 0.32812,0.0156 0.5,0.0625 0.1875,0.0469 0.25,0.15625 0.0781,0.0937 0.14062,0.26563 z m -5.40625,-8.64062 h -0.0156 l -1.65625,5 h 3.34375 z"
         fill-rule="nonzero"
         id="path35" />
    </g>
    <path
       fill="#000000"
       fill-opacity="0"
       d="m 888.866,314.12012 h 105.7008 v 89.19684 H 888.866 Z"
       fill-rule="evenodd"
       id="path36" />
    <path
       fill="#ffffff"
       d="m 924.2798,366.18228 8.25,-0.8125 q 0.73438,4.15625 3.01563,6.10937 2.28125,1.9375 6.14062,1.9375 4.09375,0 6.17188,-1.71875 2.07812,-1.73437 2.07812,-4.0625 0,-1.48437 -0.875,-2.53125 -0.875,-1.04687 -3.04687,-1.8125 -1.48438,-0.51562 -6.79688,-1.84375 -6.8125,-1.6875 -9.5625,-4.15625 -3.85937,-3.45312 -3.85937,-8.4375 0,-3.21875 1.8125,-6 1.82812,-2.79687 5.25,-4.25 3.42187,-1.46875 8.25,-1.46875 7.90625,0 11.90625,3.46875 4,3.46875 4.20312,9.25 l -8.48437,0.375 q -0.54688,-3.23437 -2.34375,-4.65625 -1.78125,-1.42187 -5.35938,-1.42187 -3.70312,0 -5.78125,1.51562 -1.34375,0.98438 -1.34375,2.60938 0,1.48437 1.25,2.54687 1.60938,1.34375 7.79688,2.8125 6.1875,1.45313 9.14062,3.01563 2.96875,1.5625 4.64063,4.28125 1.6875,2.70312 1.6875,6.67187 0,3.60938 -2.01563,6.76563 -2,3.15625 -5.67187,4.6875 -3.65625,1.53125 -9.125,1.53125 -7.96875,0 -12.23438,-3.67188 -4.26562,-3.6875 -5.09375,-10.73437 z"
       fill-rule="nonzero"
       id="path37" />
    <path
       fill="#000000"
       fill-opacity="0"
       d="m 932.93494,314.12012 h 105.70076 v 89.19684 H 932.93494 Z"
       fill-rule="evenodd"
       id="path38" />
    <path
       fill="#ffffff"
       d="m 967.61646,363.6573 q 0,0.21875 -0.0156,0.39063 -0.0156,0.15625 -0.0469,0.26562 -0.0156,0.10938 -0.0625,0.20313 -0.0469,0.0781 -0.15625,0.1875 -0.0937,0.0937 -0.39063,0.26562 -0.28125,0.15625 -0.70312,0.3125 -0.40625,0.14063 -0.9375,0.23438 -0.53125,0.10937 -1.15625,0.10937 -1.20313,0 -2.1875,-0.375 -0.96875,-0.375 -1.65625,-1.10937 -0.67188,-0.75 -1.04688,-1.85938 -0.35937,-1.10937 -0.35937,-2.57812 0,-1.5 0.39062,-2.67188 0.40625,-1.17187 1.125,-1.95312 0.71875,-0.79688 1.71875,-1.20313 1.01563,-0.42187 2.23438,-0.42187 0.48437,0 0.9375,0.0937 0.46875,0.0781 0.84375,0.21875 0.39062,0.125 0.70312,0.29687 0.3125,0.17188 0.4375,0.29688 0.125,0.125 0.15625,0.20312 0.0469,0.0781 0.0781,0.20313 0.0312,0.125 0.0469,0.3125 0.0156,0.17187 0.0156,0.42187 0,0.26563 -0.0312,0.46875 -0.0156,0.1875 -0.0625,0.3125 -0.0312,0.10938 -0.10938,0.17188 -0.0625,0.0469 -0.14062,0.0469 -0.14063,0 -0.34375,-0.15625 -0.20313,-0.15625 -0.54688,-0.34375 -0.32812,-0.20312 -0.79687,-0.35937 -0.45313,-0.17188 -1.09375,-0.17188 -0.70313,0 -1.25,0.29688 -0.54688,0.28125 -0.9375,0.8125 -0.39063,0.53125 -0.59375,1.29687 -0.1875,0.75 -0.1875,1.70313 0,1.03125 0.20312,1.79687 0.21875,0.75 0.60938,1.25 0.40625,0.48438 0.95312,0.73438 0.5625,0.23437 1.26563,0.23437 0.64062,0 1.10937,-0.14062 0.46875,-0.15625 0.79688,-0.32813 0.32812,-0.1875 0.54687,-0.32812 0.21875,-0.15625 0.32813,-0.15625 0.0937,0 0.14062,0.0469 0.0625,0.0312 0.0937,0.14063 0.0469,0.10937 0.0625,0.3125 0.0156,0.1875 0.0156,0.51562 z m 4.12469,1.45313 q 0,0.0937 -0.0625,0.17187 -0.0469,0.0625 -0.1875,0.10938 -0.14062,0.0469 -0.375,0.0625 -0.21875,0.0312 -0.57812,0.0312 -0.34375,0 -0.57813,-0.0312 -0.23437,-0.0156 -0.375,-0.0625 -0.125,-0.0469 -0.1875,-0.10938 -0.0625,-0.0781 -0.0625,-0.17187 v -11.125 q 0,-0.0937 0.0625,-0.17188 0.0625,-0.0781 0.20313,-0.10937 0.14062,-0.0469 0.35937,-0.0781 0.23438,-0.0312 0.57813,-0.0312 0.35937,0 0.57812,0.0312 0.23438,0.0312 0.375,0.0781 0.14063,0.0312 0.1875,0.10937 0.0625,0.0781 0.0625,0.17188 z m 9.55195,-0.60938 q 0,0.26563 -0.0312,0.45313 -0.0156,0.17187 -0.0625,0.28125 -0.0312,0.10937 -0.10938,0.15625 -0.0625,0.0469 -0.14062,0.0469 h -5.92188 q -0.3125,0 -0.51562,-0.17187 -0.20313,-0.1875 -0.20313,-0.57813 V 354.4073 q 0,-0.40625 0.20313,-0.57812 0.20312,-0.17188 0.51562,-0.17188 h 5.875 q 0.0937,0 0.15625,0.0469 0.0625,0.0312 0.10938,0.15625 0.0469,0.10937 0.0625,0.29687 0.0156,0.17188 0.0156,0.4375 0,0.26563 -0.0156,0.4375 -0.0156,0.17188 -0.0625,0.28125 -0.0469,0.10938 -0.10938,0.17188 -0.0625,0.0469 -0.15625,0.0469 h -4.20312 v 2.875 h 3.5625 q 0.0781,0 0.14062,0.0469 0.0781,0.0469 0.125,0.15625 0.0469,0.10937 0.0625,0.28125 0.0312,0.17187 0.0312,0.4375 0,0.26562 -0.0312,0.4375 -0.0156,0.17187 -0.0625,0.28125 -0.0469,0.0937 -0.125,0.14062 -0.0625,0.0469 -0.14062,0.0469 h -3.5625 v 3.32812 h 4.25 q 0.0781,0 0.14062,0.0469 0.0781,0.0469 0.10938,0.15625 0.0469,0.10937 0.0625,0.29687 0.0312,0.17188 0.0312,0.4375 z m 11.83477,0.0937 q 0,0.21875 -0.0781,0.39063 -0.0625,0.15625 -0.1875,0.26562 -0.125,0.10938 -0.29688,0.15625 -0.15625,0.0469 -0.32812,0.0469 H 991.206 q -0.3125,0 -0.54688,-0.0625 -0.23437,-0.0625 -0.4375,-0.23438 -0.1875,-0.17187 -0.375,-0.45312 -0.17187,-0.28125 -0.40625,-0.73438 l -2.9375,-5.51562 q -0.25,-0.5 -0.51562,-1.0625 -0.26563,-0.57813 -0.46875,-1.10938 h -0.0156 q 0.0312,0.65625 0.0469,1.3125 0.0156,0.64063 0.0156,1.34375 v 6.15625 q 0,0.0937 -0.0469,0.17188 -0.0469,0.0781 -0.17188,0.125 -0.125,0.0469 -0.34375,0.0625 -0.20312,0.0312 -0.53125,0.0312 -0.3125,0 -0.53125,-0.0312 -0.20312,-0.0156 -0.32812,-0.0625 -0.10938,-0.0469 -0.15625,-0.125 -0.0469,-0.0781 -0.0469,-0.17188 v -10.59375 q 0,-0.42187 0.25,-0.625 0.25,-0.21875 0.625,-0.21875 h 1.28125 q 0.34375,0 0.57813,0.0625 0.23437,0.0469 0.42187,0.1875 0.1875,0.14063 0.34375,0.39063 0.17188,0.23437 0.34375,0.57812 l 2.29688,4.3125 q 0.20312,0.39063 0.39062,0.78125 0.20313,0.375 0.375,0.75 0.1875,0.375 0.35938,0.75 0.1875,0.35938 0.34375,0.71875 h 0.0156 q -0.0312,-0.64062 -0.0469,-1.32812 -0.0156,-0.70313 -0.0156,-1.32813 v -5.53125 q 0,-0.0937 0.0469,-0.15625 0.0625,-0.0781 0.1875,-0.125 0.125,-0.0625 0.32812,-0.0781 0.21875,-0.0312 0.54688,-0.0312 0.3125,0 0.51562,0.0312 0.21875,0.0156 0.32813,0.0781 0.10937,0.0469 0.15625,0.125 0.0469,0.0625 0.0469,0.15625 z m 10.72623,-0.9375 q 0,0.21875 -0.016,0.39063 -0.016,0.15625 -0.047,0.26562 -0.016,0.10938 -0.062,0.20313 -0.047,0.0781 -0.1563,0.1875 -0.094,0.0937 -0.3906,0.26562 -0.2813,0.15625 -0.7031,0.3125 -0.4063,0.14063 -0.9375,0.23438 -0.5313,0.10937 -1.1563,0.10937 -1.2031,0 -2.1875,-0.375 -0.9687,-0.375 -1.6562,-1.10937 -0.6719,-0.75 -1.0469,-1.85938 -0.3594,-1.10937 -0.3594,-2.57812 0,-1.5 0.3906,-2.67188 0.4063,-1.17187 1.125,-1.95312 0.7188,-0.79688 1.7188,-1.20313 1.0156,-0.42187 2.2344,-0.42187 0.4843,0 0.9375,0.0937 0.4687,0.0781 0.8437,0.21875 0.3906,0.125 0.7031,0.29687 0.3125,0.17188 0.4375,0.29688 0.125,0.125 0.1563,0.20312 0.047,0.0781 0.078,0.20313 0.031,0.125 0.047,0.3125 0.016,0.17187 0.016,0.42187 0,0.26563 -0.031,0.46875 -0.016,0.1875 -0.062,0.3125 -0.031,0.10938 -0.1094,0.17188 -0.062,0.0469 -0.1406,0.0469 -0.1407,0 -0.3438,-0.15625 -0.2031,-0.15625 -0.5469,-0.34375 -0.3281,-0.20312 -0.7968,-0.35937 -0.4532,-0.17188 -1.0938,-0.17188 -0.7031,0 -1.25,0.29688 -0.5469,0.28125 -0.9375,0.8125 -0.3906,0.53125 -0.5937,1.29687 -0.1875,0.75 -0.1875,1.70313 0,1.03125 0.2031,1.79687 0.2187,0.75 0.6094,1.25 0.4062,0.48438 0.9531,0.73438 0.5625,0.23437 1.2656,0.23437 0.6406,0 1.1094,-0.14062 0.4687,-0.15625 0.7969,-0.32813 0.3281,-0.1875 0.5468,-0.32812 0.2188,-0.15625 0.3282,-0.15625 0.094,0 0.1406,0.0469 0.062,0.0312 0.094,0.14063 0.047,0.10937 0.062,0.3125 0.016,0.1875 0.016,0.51562 z m 8.7028,0.84375 q 0,0.26563 -0.031,0.45313 -0.016,0.17187 -0.062,0.28125 -0.031,0.10937 -0.1093,0.15625 -0.062,0.0469 -0.1407,0.0469 h -5.9218 q -0.3125,0 -0.5157,-0.17187 -0.2031,-0.1875 -0.2031,-0.57813 V 354.4073 q 0,-0.40625 0.2031,-0.57812 0.2032,-0.17188 0.5157,-0.17188 h 5.875 q 0.094,0 0.1562,0.0469 0.062,0.0312 0.1094,0.15625 0.047,0.10937 0.062,0.29687 0.016,0.17188 0.016,0.4375 0,0.26563 -0.016,0.4375 -0.016,0.17188 -0.062,0.28125 -0.047,0.10938 -0.1094,0.17188 -0.062,0.0469 -0.1562,0.0469 h -4.2032 v 2.875 h 3.5625 q 0.078,0 0.1407,0.0469 0.078,0.0469 0.125,0.15625 0.047,0.10937 0.062,0.28125 0.031,0.17187 0.031,0.4375 0,0.26562 -0.031,0.4375 -0.016,0.17187 -0.062,0.28125 -0.047,0.0937 -0.125,0.14062 -0.062,0.0469 -0.1407,0.0469 h -3.5625 v 3.32812 h 4.25 q 0.078,0 0.1407,0.0469 0.078,0.0469 0.1093,0.15625 0.047,0.10937 0.062,0.29687 0.031,0.17188 0.031,0.4375 z"
       fill-rule="nonzero"
       id="path39" />
    <path
       fill="#00c1d4"
       d="m 504.15958,360 v 0 c 0,-31.31064 25.38229,-56.6929 56.6929,-56.6929 v 0 c 15.03589,0 29.45599,5.97296 40.08795,16.60495 10.63202,10.63199 16.60498,25.05206 16.60498,40.08795 v 0 c 0,31.31064 -25.38226,56.6929 -56.69293,56.6929 v 0 c -31.31061,0 -56.6929,-25.38226 -56.6929,-56.6929 z"
       fill-rule="evenodd"
       id="path40" />
    <path
       stroke="#ffffff"
       stroke-width="1"
       stroke-linejoin="round"
       stroke-linecap="butt"
       d="m 504.15958,360 v 0 c 0,-31.31064 25.38229,-56.6929 56.6929,-56.6929 v 0 c 15.03589,0 29.45599,5.97296 40.08795,16.60495 10.63202,10.63199 16.60498,25.05206 16.60498,40.08795 v 0 c 0,31.31064 -25.38226,56.6929 -56.69293,56.6929 v 0 c -31.31061,0 -56.6929,-25.38226 -56.6929,-56.6929 z"
       fill-rule="evenodd"
       id="path41" />
    <path
       fill="#ff7e15"
       d="m 703.668,149.32956 v 0 c 0,-31.31064 25.38226,-56.692917 56.69293,-56.692917 v 0 c 15.03589,0 29.45593,5.972984 40.08795,16.604967 10.63196,10.63199 16.60492,25.05205 16.60492,40.08795 v 0 c 0,31.31062 -25.38226,56.6929 -56.69287,56.6929 v 0 c -31.31067,0 -56.69293,-25.38228 -56.69293,-56.6929 z"
       fill-rule="evenodd"
       id="path42" />
    <path
       stroke="#ffffff"
       stroke-width="1"
       stroke-linejoin="round"
       stroke-linecap="butt"
       d="m 703.668,149.32956 v 0 c 0,-31.31064 25.38226,-56.692917 56.69293,-56.692917 v 0 c 15.03589,0 29.45593,5.972984 40.08795,16.604967 10.63196,10.63199 16.60492,25.05205 16.60492,40.08795 v 0 c 0,31.31062 -25.38226,56.6929 -56.69287,56.6929 v 0 c -31.31067,0 -56.69293,-25.38228 -56.69293,-56.6929 z"
       fill-rule="evenodd"
       id="path43" />
    <path
       fill="#ff4f4f"
       d="m 903.1764,360 v 0 c 0,-31.31064 25.38226,-56.6929 56.69287,-56.6929 v 0 c 15.03595,0 29.45599,5.97296 40.08793,16.60495 10.632,10.63199 16.605,25.05206 16.605,40.08795 v 0 c 0,31.31064 -25.38226,56.6929 -56.69293,56.6929 v 0 c -31.31061,0 -56.69287,-25.38226 -56.69287,-56.6929 z"
       fill-rule="evenodd"
       id="path44" />
    <path
       stroke="#ffffff"
       stroke-width="1"
       stroke-linejoin="round"
       stroke-linecap="butt"
       d="m 903.1764,360 v 0 c 0,-31.31064 25.38226,-56.6929 56.69287,-56.6929 v 0 c 15.03595,0 29.45599,5.97296 40.08793,16.60495 10.632,10.63199 16.605,25.05206 16.605,40.08795 v 0 c 0,31.31064 -25.38226,56.6929 -56.69293,56.6929 v 0 c -31.31061,0 -56.69287,-25.38226 -56.69287,-56.6929 z"
       fill-rule="evenodd"
       id="path45" />
    <path
       fill="#000000"
       fill-opacity="0"
       d="M 711.9573,196.31474 609.91006,315.36987"
       fill-rule="evenodd"
       id="path46" />
    <path
       fill="#ffffff"
       stroke="#ffffff"
       stroke-width="3"
       stroke-linecap="butt"
       d="m 619.547,293.99588 -6.78278,18.04413 16.79444,-9.46271 z"
       fill-rule="evenodd"
       id="path48" />
    <path
       fill="#000000"
       fill-opacity="0"
       d="M 630.8799,360 H 888.86605"
       fill-rule="evenodd"
       id="path49" />
    <path
       fill="#ffffff"
       stroke="#ffffff"
       stroke-width="3"
       stroke-linecap="butt"
       d="M 866.3661,366.59308 884.48036,360 866.3661,353.40692 Z"
       fill-rule="evenodd"
       id="path51" />
    <path
       fill="#000000"
       fill-opacity="0"
       d="M 809.4607,196.31474 911.50794,315.36987"
       fill-rule="evenodd"
       id="path52" />
    <path
       fill="#ffffff"
       stroke="#ffffff"
       stroke-width="3"
       stroke-linecap="butt"
       d="m 891.8593,302.5773 16.79443,9.46271 -6.78277,-18.04413 z"
       fill-rule="evenodd"
       id="path54" />
    <path
       fill="#7200fe"
       d="m 703.668,580.37836 v 0 c 0,-31.31061 25.38226,-56.69287 56.69293,-56.69287 v 0 c 15.03589,0 29.45593,5.97296 40.08795,16.60492 10.63196,10.63202 16.60492,25.05206 16.60492,40.08795 v 0 c 0,31.31067 -25.38226,56.69293 -56.69287,56.69293 v 0 c -31.31067,0 -56.69293,-25.38226 -56.69293,-56.69293 z"
       fill-rule="evenodd"
       id="path55" />
    <path
       stroke="#ffffff"
       stroke-width="1"
       stroke-linejoin="round"
       stroke-linecap="butt"
       d="m 703.668,580.37836 v 0 c 0,-31.31061 25.38226,-56.69287 56.69293,-56.69287 v 0 c 15.03589,0 29.45593,5.97296 40.08795,16.60492 10.63196,10.63202 16.60492,25.05206 16.60492,40.08795 v 0 c 0,31.31067 -25.38226,56.69293 -56.69287,56.69293 v 0 c -31.31067,0 -56.69293,-25.38226 -56.69293,-56.69293 z"
       fill-rule="evenodd"
       id="path56" />
    <path
       fill="#ffffff"
       d="m 731.69934,567.6315 h 3.82812 q 1.125,0 1.67188,0.0937 0.5625,0.0937 1,0.40625 0.4375,0.29687 0.73437,0.79687 0.29688,0.5 0.29688,1.10938 0,0.67187 -0.35938,1.23437 -0.35937,0.5625 -0.98437,0.84375 0.875,0.25 1.34375,0.85938 0.46875,0.60937 0.46875,1.4375 0,0.65625 -0.3125,1.26562 -0.29688,0.60938 -0.82813,0.98438 -0.51562,0.35937 -1.28125,0.45312 -0.48437,0.0469 -2.32812,0.0625 h -3.25 z m 1.9375,1.59375 v 2.20312 h 1.26562 q 1.125,0 1.39063,-0.0312 0.5,-0.0625 0.78125,-0.34375 0.28125,-0.28125 0.28125,-0.73437 0,-0.45313 -0.25,-0.71875 -0.23438,-0.28125 -0.71875,-0.34375 -0.28125,-0.0312 -1.64063,-0.0312 z m 0,3.79687 v 2.54688 h 1.78125 q 1.04687,0 1.3125,-0.0625 0.4375,-0.0781 0.70312,-0.375 0.26563,-0.29688 0.26563,-0.8125 0,-0.42188 -0.20313,-0.71875 -0.20312,-0.3125 -0.60937,-0.4375 -0.39063,-0.14063 -1.70313,-0.14063 z m 12.21887,4.15625 v -1.03125 q -0.375,0.54688 -1,0.875 -0.60937,0.3125 -1.28125,0.3125 -0.70312,0 -1.26562,-0.29687 -0.54688,-0.3125 -0.79688,-0.85938 -0.23437,-0.5625 -0.23437,-1.53125 v -4.375 h 1.82812 v 3.17188 q 0,1.45312 0.0937,1.78125 0.10938,0.32812 0.375,0.53125 0.26563,0.1875 0.67188,0.1875 0.46875,0 0.84375,-0.25 0.375,-0.26563 0.5,-0.64063 0.14062,-0.39062 0.14062,-1.875 v -2.90625 h 1.82813 v 6.90625 z m 2.95386,-1.96875 1.82812,-0.28125 q 0.125,0.53125 0.48438,0.8125 0.35937,0.26563 1,0.26563 0.70312,0 1.0625,-0.25 0.25,-0.1875 0.25,-0.48438 0,-0.21875 -0.14063,-0.35937 -0.125,-0.125 -0.60937,-0.23438 -2.20313,-0.48437 -2.79688,-0.89062 -0.82812,-0.5625 -0.82812,-1.5625 0,-0.89063 0.70312,-1.5 0.71875,-0.60938 2.20313,-0.60938 1.42187,0 2.10937,0.46875 0.70313,0.45313 0.95313,1.35938 l -1.71875,0.3125 q -0.10938,-0.40625 -0.42188,-0.60938 -0.3125,-0.21875 -0.89062,-0.21875 -0.71875,0 -1.03125,0.20313 -0.20313,0.14062 -0.20313,0.35937 0,0.20313 0.1875,0.34375 0.23438,0.17188 1.6875,0.51563 1.46875,0.32812 2.0625,0.8125 0.5625,0.48437 0.5625,1.35937 0,0.95313 -0.79687,1.64063 -0.78125,0.67187 -2.34375,0.67187 -1.40625,0 -2.23438,-0.5625 -0.82812,-0.57812 -1.07812,-1.5625 z m 8.0531,-5.875 v -1.70312 h 1.82813 v 1.70312 z m 0,7.84375 v -6.90625 h 1.82813 v 6.90625 z m 9.99988,0 h -1.82813 v -3.53125 q 0,-1.10937 -0.125,-1.4375 -0.10937,-0.32812 -0.375,-0.51562 -0.26562,-0.1875 -0.64062,-0.1875 -0.46875,0 -0.85938,0.26562 -0.375,0.26563 -0.51562,0.70313 -0.14063,0.42187 -0.14063,1.57812 v 3.125 h -1.82812 v -6.90625 h 1.70312 v 1.01563 q 0.90625,-1.17188 2.28125,-1.17188 0.60938,0 1.10938,0.21875 0.5,0.21875 0.75,0.5625 0.26562,0.32813 0.35937,0.76563 0.10938,0.42187 0.10938,1.21875 z m 5.84448,-2.20312 1.82813,0.3125 q -0.34375,1 -1.10938,1.53125 -0.76562,0.51562 -1.89062,0.51562 -1.8125,0 -2.67188,-1.17187 -0.6875,-0.95313 -0.6875,-2.39063 0,-1.71875 0.89063,-2.6875 0.90625,-0.96875 2.28125,-0.96875 1.54687,0 2.4375,1.01563 0.89062,1.01562 0.84375,3.125 h -4.57813 q 0.0156,0.8125 0.4375,1.26562 0.42188,0.45313 1.0625,0.45313 0.42188,0 0.71875,-0.23438 0.29688,-0.23437 0.4375,-0.76562 z m 0.10938,-1.84375 q -0.0156,-0.79688 -0.40625,-1.20313 -0.39063,-0.42187 -0.95313,-0.42187 -0.59375,0 -0.98437,0.4375 -0.39063,0.4375 -0.39063,1.1875 z m 2.66247,2.07812 1.82813,-0.28125 q 0.125,0.53125 0.48437,0.8125 0.35938,0.26563 1,0.26563 0.70313,0 1.0625,-0.25 0.25,-0.1875 0.25,-0.48438 0,-0.21875 -0.14062,-0.35937 -0.125,-0.125 -0.60938,-0.23438 -2.20312,-0.48437 -2.79687,-0.89062 -0.82813,-0.5625 -0.82813,-1.5625 0,-0.89063 0.70313,-1.5 0.71875,-0.60938 2.20312,-0.60938 1.42188,0 2.10938,0.46875 0.70312,0.45313 0.95312,1.35938 l -1.71875,0.3125 q -0.10937,-0.40625 -0.42187,-0.60938 -0.3125,-0.21875 -0.89063,-0.21875 -0.71875,0 -1.03125,0.20313 -0.20312,0.14062 -0.20312,0.35937 0,0.20313 0.1875,0.34375 0.23437,0.17188 1.6875,0.51563 1.46875,0.32812 2.0625,0.8125 0.5625,0.48437 0.5625,1.35937 0,0.95313 -0.79688,1.64063 -0.78125,0.67187 -2.34375,0.67187 -1.40625,0 -2.23437,-0.5625 -0.82813,-0.57812 -1.07813,-1.5625 z m 7.41248,0 1.82812,-0.28125 q 0.125,0.53125 0.48438,0.8125 0.35937,0.26563 1,0.26563 0.70312,0 1.0625,-0.25 0.25,-0.1875 0.25,-0.48438 0,-0.21875 -0.14063,-0.35937 -0.125,-0.125 -0.60937,-0.23438 -2.20313,-0.48437 -2.79688,-0.89062 -0.82812,-0.5625 -0.82812,-1.5625 0,-0.89063 0.70312,-1.5 0.71875,-0.60938 2.20313,-0.60938 1.42187,0 2.10937,0.46875 0.70313,0.45313 0.95313,1.35938 l -1.71875,0.3125 q -0.10938,-0.40625 -0.42188,-0.60938 -0.3125,-0.21875 -0.89062,-0.21875 -0.71875,0 -1.03125,0.20313 -0.20313,0.14062 -0.20313,0.35937 0,0.20313 0.1875,0.34375 0.23438,0.17188 1.6875,0.51563 1.46875,0.32812 2.0625,0.8125 0.5625,0.48437 0.5625,1.35937 0,0.95313 -0.79687,1.64063 -0.78125,0.67187 -2.34375,0.67187 -1.40625,0 -2.23438,-0.5625 -0.82812,-0.57812 -1.07812,-1.5625 z"
       fill-rule="nonzero"
       id="path57" />
    <path
       fill="#ffffff"
       d="m 740.3087,593.17834 h -2.09375 l -0.84375,-2.17187 h -3.8125 l -0.78125,2.17187 h -2.04687 l 3.71875,-9.54687 h 2.03125 z m -3.54687,-3.78125 -1.3125,-3.53125 -1.29688,3.53125 z m 10.84387,3.78125 h -1.82813 v -3.53125 q 0,-1.10937 -0.125,-1.4375 -0.10937,-0.32812 -0.375,-0.51562 -0.26562,-0.1875 -0.64062,-0.1875 -0.46875,0 -0.85938,0.26562 -0.375,0.26563 -0.51562,0.70313 -0.14063,0.42187 -0.14063,1.57812 v 3.125 h -1.82812 v -6.90625 h 1.70312 v 1.01563 q 0.90625,-1.17188 2.28125,-1.17188 0.60938,0 1.10938,0.21875 0.5,0.21875 0.75,0.5625 0.26562,0.32813 0.35937,0.76563 0.10938,0.42187 0.10938,1.21875 z m 3.21948,-4.79687 -1.67188,-0.3125 q 0.28125,-1 0.96875,-1.46875 0.6875,-0.48438 2.03125,-0.48438 1.21875,0 1.8125,0.29688 0.60938,0.28125 0.84375,0.73437 0.25,0.4375 0.25,1.625 l -0.0156,2.14063 q 0,0.90625 0.0781,1.34375 0.0937,0.42187 0.34375,0.92187 h -1.8125 q -0.0781,-0.1875 -0.17187,-0.54687 -0.0469,-0.15625 -0.0781,-0.20313 -0.46875,0.45313 -1,0.6875 -0.53125,0.21875 -1.14062,0.21875 -1.0625,0 -1.6875,-0.57812 -0.60938,-0.57813 -0.60938,-1.46875 0,-0.57813 0.28125,-1.03125 0.28125,-0.46875 0.78125,-0.70313 0.51563,-0.25 1.46875,-0.4375 1.28125,-0.23437 1.76563,-0.45312 v -0.17188 q 0,-0.53125 -0.26563,-0.75 -0.25,-0.23437 -0.96875,-0.23437 -0.48437,0 -0.76562,0.20312 -0.26563,0.1875 -0.4375,0.67188 z m 2.4375,1.48437 q -0.34375,0.10938 -1.10938,0.28125 -0.76562,0.15625 -1,0.3125 -0.35937,0.25 -0.35937,0.64063 0,0.39062 0.28125,0.67187 0.29687,0.28125 0.73437,0.28125 0.5,0 0.95313,-0.32812 0.32812,-0.25 0.4375,-0.60938 0.0625,-0.23437 0.0625,-0.89062 z m 3.59998,3.3125 v -9.54687 h 1.82812 v 9.54687 z m 2.84362,-6.90625 h 1.9375 l 1.65625,4.90625 1.60938,-4.90625 h 1.90625 l -2.45313,6.64063 -0.42187,1.20312 q -0.25,0.60938 -0.46875,0.92188 -0.21875,0.32812 -0.5,0.51562 -0.28125,0.20313 -0.70313,0.3125 -0.40625,0.125 -0.92187,0.125 -0.53125,0 -1.03125,-0.125 l -0.17188,-1.42187 q 0.4375,0.0781 0.78125,0.0781 0.64063,0 0.9375,-0.375 0.3125,-0.375 0.46875,-0.95312 z m 11.44373,0 v 1.45313 h -1.25 v 2.78125 q 0,0.84375 0.0312,0.98437 0.0469,0.14063 0.17187,0.23438 0.125,0.0937 0.3125,0.0937 0.25,0 0.73438,-0.17188 l 0.15625,1.42188 q -0.64063,0.26562 -1.45313,0.26562 -0.48437,0 -0.89062,-0.15625 -0.39063,-0.17187 -0.57813,-0.4375 -0.1875,-0.26562 -0.26562,-0.71875 -0.0469,-0.3125 -0.0469,-1.28125 v -3.01562 h -0.84375 v -1.45313 h 0.84375 v -1.375 l 1.82813,-1.07812 v 2.45312 z m 1.26648,-0.9375 v -1.70312 h 1.82812 v 1.70312 z m 0,7.84375 v -6.90625 h 1.82812 v 6.90625 z m 9.73425,-4.875 -1.79687,0.32813 q -0.0937,-0.53125 -0.42188,-0.79688 -0.32812,-0.28125 -0.82812,-0.28125 -0.6875,0 -1.09375,0.46875 -0.40625,0.46875 -0.40625,1.57813 0,1.23437 0.40625,1.75 0.42187,0.5 1.10937,0.5 0.53125,0 0.85938,-0.29688 0.32812,-0.29687 0.46875,-1.03125 l 1.79687,0.3125 q -0.28125,1.23438 -1.07812,1.875 -0.79688,0.625 -2.125,0.625 -1.51563,0 -2.42188,-0.95312 -0.90625,-0.95313 -0.90625,-2.65625 0,-1.70313 0.90625,-2.65625 0.90625,-0.95313 2.45313,-0.95313 1.26562,0 2,0.54688 0.75,0.53125 1.07812,1.64062 z m 0.7406,2.90625 1.82813,-0.28125 q 0.125,0.53125 0.48437,0.8125 0.35938,0.26563 1,0.26563 0.70313,0 1.0625,-0.25 0.25,-0.1875 0.25,-0.48438 0,-0.21875 -0.14062,-0.35937 -0.125,-0.125 -0.60938,-0.23438 -2.20312,-0.48437 -2.79687,-0.89062 -0.82813,-0.5625 -0.82813,-1.5625 0,-0.89063 0.70313,-1.5 0.71875,-0.60938 2.20312,-0.60938 1.42188,0 2.10938,0.46875 0.70312,0.45313 0.95312,1.35938 l -1.71875,0.3125 q -0.10937,-0.40625 -0.42187,-0.60938 -0.3125,-0.21875 -0.89063,-0.21875 -0.71875,0 -1.03125,0.20313 -0.20312,0.14062 -0.20312,0.35937 0,0.20313 0.1875,0.34375 0.23437,0.17188 1.6875,0.51563 1.46875,0.32812 2.0625,0.8125 0.5625,0.48437 0.5625,1.35937 0,0.95313 -0.79688,1.64063 -0.78125,0.67187 -2.34375,0.67187 -1.40625,0 -2.23437,-0.5625 -0.82813,-0.57812 -1.07813,-1.5625 z"
       fill-rule="nonzero"
       id="path58" />
    <path
       fill="#000000"
       fill-opacity="0"
       d="M 707.6428,533.15845 605.59556,414.10331"
       fill-rule="evenodd"
       id="path59" />
    <path
       fill="#ffffff"
       stroke="#ffffff"
       stroke-width="3"
       stroke-linecap="butt"
       d="m 687.99414,520.36584 16.79449,9.46271 -6.78283,-18.04413 z"
       fill-rule="evenodd"
       id="path61" />
    <path
       fill="#000000"
       fill-opacity="0"
       d="M 809.4607,533.15845 911.50794,414.10331"
       fill-rule="evenodd"
       id="path62" />
    <path
       fill="#ffffff"
       stroke="#ffffff"
       stroke-width="3"
       stroke-linecap="butt"
       d="m 819.0977,511.78445 -6.78284,18.0441 16.7945,-9.46271 z"
       fill-rule="evenodd"
       id="path64" />
    <path
       fill="#000000"
       fill-opacity="0"
       d="m 686.5511,104.73218 h 105.70081 v 89.19685 H 686.5511 Z"
       fill-rule="evenodd"
       id="path65" />
    <path
       fill="#ffffff"
       d="m 749.3466,155.0131 8.23437,2.60937 q -1.89062,6.875 -6.29687,10.21875 -4.39063,3.32813 -11.15625,3.32813 -8.35938,0 -13.75,-5.71875 -5.375,-5.71875 -5.375,-15.625 0,-10.48438 5.40625,-16.28125 5.42187,-5.79687 14.23437,-5.79687 7.70313,0 12.51563,4.54687 2.875,2.70312 4.29687,7.73437 l -8.39062,2.01563 q -0.75,-3.26563 -3.10938,-5.15625 -2.35937,-1.89063 -5.73437,-1.89063 -4.67188,0 -7.57813,3.35938 -2.90625,3.34375 -2.90625,10.84375 0,7.95312 2.85938,11.34375 2.85937,3.375 7.45312,3.375 3.375,0 5.8125,-2.14063 2.4375,-2.15625 3.48438,-6.76562 z"
       fill-rule="nonzero"
       id="path66" />
    <path
       fill="#000000"
       fill-opacity="0"
       d="m 733.7829,107.118 h 105.70081 v 89.19685 H 733.7829 Z"
       fill-rule="evenodd"
       id="path67" />
    <path
       fill="#ffffff"
       d="m 772.09625,157.5458 q 0.10938,0.32813 0.14063,0.51563 0.0312,0.1875 -0.0781,0.29687 -0.0937,0.0937 -0.35937,0.10938 -0.25,0.0156 -0.6875,0.0156 -0.46875,0 -0.73438,-0.0156 -0.25,0 -0.39062,-0.0312 -0.14063,-0.0469 -0.20313,-0.125 -0.0469,-0.0781 -0.0781,-0.1875 l -0.79688,-2.375 h -4.42187 l -0.75,2.3125 q -0.0312,0.125 -0.0937,0.21875 -0.0625,0.0781 -0.20313,0.125 -0.125,0.0469 -0.375,0.0625 -0.23437,0.0156 -0.625,0.0156 -0.42187,0 -0.65625,-0.0312 -0.23437,-0.0156 -0.32812,-0.10937 -0.0937,-0.10938 -0.0625,-0.29688 0.0312,-0.20312 0.14062,-0.51562 l 3.64063,-10.46875 q 0.0469,-0.15625 0.10937,-0.25 0.0781,-0.0937 0.23438,-0.14063 0.17187,-0.0469 0.45312,-0.0625 0.28125,-0.0156 0.75,-0.0156 0.53125,0 0.84375,0.0156 0.32813,0.0156 0.5,0.0625 0.1875,0.0469 0.25,0.15625 0.0781,0.0937 0.14063,0.26563 z M 766.69,148.90518 h -0.0156 l -1.65625,5 h 3.34375 z m 16.36084,5.14062 q 0,1.07813 -0.32812,1.9375 -0.3125,0.85938 -0.9375,1.45313 -0.60938,0.59375 -1.53125,0.90625 -0.90625,0.29687 -2.09375,0.29687 -1.10938,0 -2,-0.26562 -0.875,-0.28125 -1.48438,-0.84375 -0.60937,-0.5625 -0.9375,-1.40625 -0.3125,-0.84375 -0.3125,-1.98438 v -7.15625 q 0,-0.0937 0.0469,-0.17187 0.0625,-0.0781 0.20312,-0.10938 0.14063,-0.0469 0.35938,-0.0781 0.23437,-0.0312 0.59375,-0.0312 0.34375,0 0.5625,0.0312 0.23437,0.0312 0.35937,0.0781 0.14063,0.0312 0.20313,0.10938 0.0625,0.0781 0.0625,0.17187 v 6.95313 q 0,0.70312 0.17187,1.21875 0.17188,0.51562 0.5,0.85937 0.32813,0.32813 0.76563,0.5 0.45312,0.15625 1.01562,0.15625 0.5625,0 1,-0.17187 0.45313,-0.17188 0.76563,-0.5 0.3125,-0.32813 0.46875,-0.8125 0.17187,-0.5 0.17187,-1.10938 v -7.09375 q 0,-0.0937 0.0469,-0.17187 0.0625,-0.0781 0.20312,-0.10938 0.14063,-0.0469 0.35938,-0.0781 0.23437,-0.0312 0.59375,-0.0312 0.34375,0 0.5625,0.0312 0.21875,0.0312 0.35937,0.0781 0.14063,0.0312 0.1875,0.10938 0.0625,0.0781 0.0625,0.17187 z m 9.53876,0.85938 q 0,0.92187 -0.34375,1.625 -0.34375,0.70312 -0.9375,1.17187 -0.59375,0.46875 -1.39063,0.70313 -0.78125,0.23437 -1.6875,0.23437 -0.60937,0 -1.14062,-0.0937 -0.51563,-0.0937 -0.92188,-0.23437 -0.39062,-0.14063 -0.67187,-0.29688 -0.26563,-0.15625 -0.39063,-0.26562 -0.10937,-0.125 -0.15625,-0.34375 -0.0469,-0.23438 -0.0469,-0.65625 0,-0.28125 0.0156,-0.46875 0.0156,-0.1875 0.0469,-0.3125 0.0469,-0.125 0.10937,-0.17188 0.0781,-0.0469 0.17188,-0.0469 0.125,0 0.35937,0.15625 0.23438,0.14062 0.59375,0.32812 0.35938,0.1875 0.85938,0.34375 0.51562,0.14063 1.1875,0.14063 0.4375,0 0.78125,-0.10938 0.34375,-0.10937 0.57812,-0.29687 0.25,-0.1875 0.375,-0.46875 0.125,-0.28125 0.125,-0.625 0,-0.40625 -0.21875,-0.6875 -0.21875,-0.29688 -0.57812,-0.51563 -0.34375,-0.21875 -0.79688,-0.40625 -0.4375,-0.20312 -0.90625,-0.42187 -0.46875,-0.21875 -0.92187,-0.5 -0.45313,-0.28125 -0.79688,-0.67188 -0.34375,-0.39062 -0.5625,-0.90625 -0.21875,-0.53125 -0.21875,-1.26562 0,-0.85938 0.3125,-1.5 0.3125,-0.64063 0.84375,-1.0625 0.53125,-0.42188 1.25,-0.625 0.73438,-0.21875 1.54688,-0.21875 0.40625,0 0.82812,0.0625 0.42188,0.0625 0.78125,0.17187 0.375,0.10938 0.65625,0.25 0.28125,0.14063 0.35938,0.23438 0.0937,0.0781 0.125,0.15625 0.0469,0.0625 0.0625,0.17187 0.0156,0.0937 0.0312,0.25 0.0156,0.15625 0.0156,0.40625 0,0.26563 -0.0156,0.45313 -0.0156,0.17187 -0.0469,0.29687 -0.0312,0.10938 -0.0937,0.17188 -0.0625,0.0469 -0.15625,0.0469 -0.10937,0 -0.32812,-0.125 -0.21875,-0.125 -0.53125,-0.28125 -0.3125,-0.15625 -0.73438,-0.26562 -0.42187,-0.125 -0.92187,-0.125 -0.39063,0 -0.6875,0.0937 -0.28125,0.0937 -0.48438,0.26562 -0.20312,0.17188 -0.29687,0.40625 -0.0937,0.23438 -0.0937,0.5 0,0.39063 0.21875,0.6875 0.21875,0.28125 0.57812,0.5 0.35938,0.21875 0.8125,0.42188 0.45313,0.1875 0.92188,0.40625 0.48437,0.21875 0.9375,0.5 0.45312,0.28125 0.79687,0.67187 0.35938,0.375 0.57813,0.90625 0.21875,0.51563 0.21875,1.23438 z m 11.26202,2.64062 q 0.10938,0.32813 0.14063,0.51563 0.0312,0.1875 -0.0781,0.29687 -0.0937,0.0937 -0.35937,0.10938 -0.25,0.0156 -0.6875,0.0156 -0.46875,0 -0.73438,-0.0156 -0.25,0 -0.39062,-0.0312 -0.14063,-0.0469 -0.20313,-0.125 -0.0469,-0.0781 -0.0781,-0.1875 l -0.79688,-2.375 h -4.42187 l -0.75,2.3125 q -0.0312,0.125 -0.0937,0.21875 -0.0625,0.0781 -0.20313,0.125 -0.125,0.0469 -0.375,0.0625 -0.23437,0.0156 -0.625,0.0156 -0.42187,0 -0.65625,-0.0312 -0.23437,-0.0156 -0.32812,-0.10937 -0.0937,-0.10938 -0.0625,-0.29688 0.0312,-0.20312 0.14062,-0.51562 l 3.64063,-10.46875 q 0.0469,-0.15625 0.10937,-0.25 0.0781,-0.0937 0.23438,-0.14063 0.17187,-0.0469 0.45312,-0.0625 0.28125,-0.0156 0.75,-0.0156 0.53125,0 0.84375,0.0156 0.32813,0.0156 0.5,0.0625 0.1875,0.0469 0.25,0.15625 0.0781,0.0937 0.14063,0.26563 z m -5.40625,-8.64062 h -0.0156 l -1.65625,5 h 3.34375 z m 13.53925,8.53125 q 0,0.26562 -0.0312,0.45312 -0.0156,0.1875 -0.0625,0.3125 -0.0469,0.125 -0.125,0.1875 -0.0625,0.0469 -0.15625,0.0469 h -5.39063 q -0.3125,0 -0.51562,-0.17188 -0.20313,-0.1875 -0.20313,-0.57812 V 146.9833 q 0,-0.0937 0.0625,-0.17187 0.0625,-0.0781 0.1875,-0.10938 0.14063,-0.0469 0.375,-0.0781 0.23438,-0.0312 0.57813,-0.0312 0.35937,0 0.57812,0.0312 0.23438,0.0312 0.375,0.0781 0.14063,0.0312 0.1875,0.10938 0.0625,0.0781 0.0625,0.17187 v 9.46875 h 3.70313 q 0.0937,0 0.15625,0.0625 0.0781,0.0469 0.125,0.15625 0.0469,0.10938 0.0625,0.29688 0.0312,0.1875 0.0312,0.46875 z"
       fill-rule="nonzero"
       id="path68" />
    <g
       id="g70"
       transform="translate(-6)">
      <path
         fill="#000000"
         fill-opacity="0"
         d="m 496.81796,314.12012 h 105.70077 v 89.19684 H 496.81796 Z"
         fill-rule="evenodd"
         id="path69" />
      <path
         fill="#ffffff"
         d="m 532.7229,337.85416 h 15.5 q 5.23437,0 7.98437,0.79687 3.70313,1.09375 6.32813,3.875 2.64062,2.76563 4.01562,6.79688 1.375,4.01562 1.375,9.92187 0,5.1875 -1.28125,8.9375 -1.57812,4.57813 -4.5,7.42188 -2.20312,2.14062 -5.95312,3.34375 -2.8125,0.89062 -7.51563,0.89062 H 532.7229 Z m 8.48437,7.09375 v 27.8125 h 6.32813 q 3.54687,0 5.125,-0.39063 2.0625,-0.51562 3.42187,-1.75 1.35938,-1.23437 2.21875,-4.04687 0.85938,-2.82813 0.85938,-7.70313 0,-4.85937 -0.85938,-7.46875 -0.85937,-2.60937 -2.40625,-4.0625 -1.54687,-1.46875 -3.92187,-1.98437 -1.78125,-0.40625 -6.95313,-0.40625 z"
         fill-rule="nonzero"
         id="path70" />
    </g>
    <g
       id="g72"
       transform="translate(-6)">
      <path
         fill="#000000"
         fill-opacity="0"
         d="m 531.1791,314.12012 h 105.70081 v 89.19684 H 531.1791 Z"
         fill-rule="evenodd"
         id="path71" />
      <path
         fill="#ffffff"
         d="m 580.5065,364.5479 q 0.10937,0.32813 0.14062,0.51563 0.0312,0.1875 -0.0781,0.29687 -0.0937,0.0937 -0.35938,0.10938 -0.25,0.0156 -0.6875,0.0156 -0.46875,0 -0.73437,-0.0156 -0.25,0 -0.39063,-0.0312 -0.14062,-0.0469 -0.20312,-0.125 -0.0469,-0.0781 -0.0781,-0.1875 l -0.79687,-2.375 h -4.42188 l -0.75,2.3125 q -0.0312,0.125 -0.0937,0.21875 -0.0625,0.0781 -0.20312,0.125 -0.125,0.0469 -0.375,0.0625 -0.23438,0.0156 -0.625,0.0156 -0.42188,0 -0.65625,-0.0312 -0.23438,-0.0156 -0.32813,-0.10937 -0.0937,-0.10938 -0.0625,-0.29688 0.0312,-0.20312 0.14063,-0.51562 l 3.64062,-10.46875 q 0.0469,-0.15625 0.10938,-0.25 0.0781,-0.0937 0.23437,-0.14063 0.17188,-0.0469 0.45313,-0.0625 0.28125,-0.0156 0.75,-0.0156 0.53125,0 0.84375,0.0156 0.32812,0.0156 0.5,0.0625 0.1875,0.0469 0.25,0.15625 0.0781,0.0937 0.14062,0.26563 z m -5.40625,-8.64062 h -0.0156 l -1.65625,5 h 3.34375 z m 13.44031,-1.26563 q 0,0.25 -0.0312,0.4375 -0.0156,0.1875 -0.0625,0.3125 -0.0469,0.10938 -0.10938,0.17188 -0.0625,0.0469 -0.15625,0.0469 h -2.9375 v 9.5 q 0,0.0937 -0.0625,0.17188 -0.0625,0.0625 -0.20312,0.10937 -0.14063,0.0469 -0.375,0.0625 -0.21875,0.0312 -0.5625,0.0312 -0.35938,0 -0.59375,-0.0312 -0.21875,-0.0156 -0.35938,-0.0625 -0.14062,-0.0469 -0.20312,-0.10937 -0.0469,-0.0781 -0.0469,-0.17188 v -9.5 h -2.95312 q -0.0937,0 -0.15625,-0.0469 -0.0625,-0.0625 -0.10938,-0.17188 -0.0469,-0.125 -0.0781,-0.3125 -0.0156,-0.1875 -0.0156,-0.4375 0,-0.28125 0.0156,-0.46875 0.0312,-0.1875 0.0781,-0.29687 0.0469,-0.125 0.10938,-0.17188 0.0625,-0.0469 0.15625,-0.0469 h 8.29687 q 0.0937,0 0.15625,0.0469 0.0625,0.0469 0.10938,0.17188 0.0469,0.10937 0.0625,0.29687 0.0312,0.1875 0.0312,0.46875 z m 9.58209,9.90625 q 0.10937,0.32813 0.14062,0.51563 0.0312,0.1875 -0.0781,0.29687 -0.0937,0.0937 -0.35938,0.10938 -0.25,0.0156 -0.6875,0.0156 -0.46875,0 -0.73437,-0.0156 -0.25,0 -0.39063,-0.0312 -0.14062,-0.0469 -0.20312,-0.125 -0.0469,-0.0781 -0.0781,-0.1875 l -0.79687,-2.375 h -4.42188 l -0.75,2.3125 q -0.0312,0.125 -0.0937,0.21875 -0.0625,0.0781 -0.20312,0.125 -0.125,0.0469 -0.375,0.0625 -0.23438,0.0156 -0.625,0.0156 -0.42188,0 -0.65625,-0.0312 -0.23438,-0.0156 -0.32813,-0.10937 -0.0937,-0.10938 -0.0625,-0.29688 0.0312,-0.20312 0.14063,-0.51562 l 3.64062,-10.46875 q 0.0469,-0.15625 0.10938,-0.25 0.0781,-0.0937 0.23437,-0.14063 0.17188,-0.0469 0.45313,-0.0625 0.28125,-0.0156 0.75,-0.0156 0.53125,0 0.84375,0.0156 0.32812,0.0156 0.5,0.0625 0.1875,0.0469 0.25,0.15625 0.0781,0.0937 0.14062,0.26563 z m -5.40625,-8.64062 h -0.0156 l -1.65625,5 h 3.34375 z"
         fill-rule="nonzero"
         id="path72" />
    </g>
    <path
       fill="#000000"
       fill-opacity="0"
       d="m 888.866,314.12012 h 105.7008 v 89.19684 H 888.866 Z"
       fill-rule="evenodd"
       id="path73" />
    <path
       fill="#ffffff"
       d="m 924.2798,366.18228 8.25,-0.8125 q 0.73438,4.15625 3.01563,6.10937 2.28125,1.9375 6.14062,1.9375 4.09375,0 6.17188,-1.71875 2.07812,-1.73437 2.07812,-4.0625 0,-1.48437 -0.875,-2.53125 -0.875,-1.04687 -3.04687,-1.8125 -1.48438,-0.51562 -6.79688,-1.84375 -6.8125,-1.6875 -9.5625,-4.15625 -3.85937,-3.45312 -3.85937,-8.4375 0,-3.21875 1.8125,-6 1.82812,-2.79687 5.25,-4.25 3.42187,-1.46875 8.25,-1.46875 7.90625,0 11.90625,3.46875 4,3.46875 4.20312,9.25 l -8.48437,0.375 q -0.54688,-3.23437 -2.34375,-4.65625 -1.78125,-1.42187 -5.35938,-1.42187 -3.70312,0 -5.78125,1.51562 -1.34375,0.98438 -1.34375,2.60938 0,1.48437 1.25,2.54687 1.60938,1.34375 7.79688,2.8125 6.1875,1.45313 9.14062,3.01563 2.96875,1.5625 4.64063,4.28125 1.6875,2.70312 1.6875,6.67187 0,3.60938 -2.01563,6.76563 -2,3.15625 -5.67187,4.6875 -3.65625,1.53125 -9.125,1.53125 -7.96875,0 -12.23438,-3.67188 -4.26562,-3.6875 -5.09375,-10.73437 z"
       fill-rule="nonzero"
       id="path74" />
    <path
       fill="#000000"
       fill-opacity="0"
       d="m 932.93494,314.12012 h 105.70076 v 89.19684 H 932.93494 Z"
       fill-rule="evenodd"
       id="path75" />
    <path
       fill="#ffffff"
       d="m 967.61646,363.6573 q 0,0.21875 -0.0156,0.39063 -0.0156,0.15625 -0.0469,0.26562 -0.0156,0.10938 -0.0625,0.20313 -0.0469,0.0781 -0.15625,0.1875 -0.0937,0.0937 -0.39063,0.26562 -0.28125,0.15625 -0.70312,0.3125 -0.40625,0.14063 -0.9375,0.23438 -0.53125,0.10937 -1.15625,0.10937 -1.20313,0 -2.1875,-0.375 -0.96875,-0.375 -1.65625,-1.10937 -0.67188,-0.75 -1.04688,-1.85938 -0.35937,-1.10937 -0.35937,-2.57812 0,-1.5 0.39062,-2.67188 0.40625,-1.17187 1.125,-1.95312 0.71875,-0.79688 1.71875,-1.20313 1.01563,-0.42187 2.23438,-0.42187 0.48437,0 0.9375,0.0937 0.46875,0.0781 0.84375,0.21875 0.39062,0.125 0.70312,0.29687 0.3125,0.17188 0.4375,0.29688 0.125,0.125 0.15625,0.20312 0.0469,0.0781 0.0781,0.20313 0.0312,0.125 0.0469,0.3125 0.0156,0.17187 0.0156,0.42187 0,0.26563 -0.0312,0.46875 -0.0156,0.1875 -0.0625,0.3125 -0.0312,0.10938 -0.10938,0.17188 -0.0625,0.0469 -0.14062,0.0469 -0.14063,0 -0.34375,-0.15625 -0.20313,-0.15625 -0.54688,-0.34375 -0.32812,-0.20312 -0.79687,-0.35937 -0.45313,-0.17188 -1.09375,-0.17188 -0.70313,0 -1.25,0.29688 -0.54688,0.28125 -0.9375,0.8125 -0.39063,0.53125 -0.59375,1.29687 -0.1875,0.75 -0.1875,1.70313 0,1.03125 0.20312,1.79687 0.21875,0.75 0.60938,1.25 0.40625,0.48438 0.95312,0.73438 0.5625,0.23437 1.26563,0.23437 0.64062,0 1.10937,-0.14062 0.46875,-0.15625 0.79688,-0.32813 0.32812,-0.1875 0.54687,-0.32812 0.21875,-0.15625 0.32813,-0.15625 0.0937,0 0.14062,0.0469 0.0625,0.0312 0.0937,0.14063 0.0469,0.10937 0.0625,0.3125 0.0156,0.1875 0.0156,0.51562 z m 4.12469,1.45313 q 0,0.0937 -0.0625,0.17187 -0.0469,0.0625 -0.1875,0.10938 -0.14062,0.0469 -0.375,0.0625 -0.21875,0.0312 -0.57812,0.0312 -0.34375,0 -0.57813,-0.0312 -0.23437,-0.0156 -0.375,-0.0625 -0.125,-0.0469 -0.1875,-0.10938 -0.0625,-0.0781 -0.0625,-0.17187 v -11.125 q 0,-0.0937 0.0625,-0.17188 0.0625,-0.0781 0.20313,-0.10937 0.14062,-0.0469 0.35937,-0.0781 0.23438,-0.0312 0.57813,-0.0312 0.35937,0 0.57812,0.0312 0.23438,0.0312 0.375,0.0781 0.14063,0.0312 0.1875,0.10937 0.0625,0.0781 0.0625,0.17188 z m 9.55195,-0.60938 q 0,0.26563 -0.0312,0.45313 -0.0156,0.17187 -0.0625,0.28125 -0.0312,0.10937 -0.10938,0.15625 -0.0625,0.0469 -0.14062,0.0469 h -5.92188 q -0.3125,0 -0.51562,-0.17187 -0.20313,-0.1875 -0.20313,-0.57813 V 354.4073 q 0,-0.40625 0.20313,-0.57812 0.20312,-0.17188 0.51562,-0.17188 h 5.875 q 0.0937,0 0.15625,0.0469 0.0625,0.0312 0.10938,0.15625 0.0469,0.10937 0.0625,0.29687 0.0156,0.17188 0.0156,0.4375 0,0.26563 -0.0156,0.4375 -0.0156,0.17188 -0.0625,0.28125 -0.0469,0.10938 -0.10938,0.17188 -0.0625,0.0469 -0.15625,0.0469 h -4.20312 v 2.875 h 3.5625 q 0.0781,0 0.14062,0.0469 0.0781,0.0469 0.125,0.15625 0.0469,0.10937 0.0625,0.28125 0.0312,0.17187 0.0312,0.4375 0,0.26562 -0.0312,0.4375 -0.0156,0.17187 -0.0625,0.28125 -0.0469,0.0937 -0.125,0.14062 -0.0625,0.0469 -0.14062,0.0469 h -3.5625 v 3.32812 h 4.25 q 0.0781,0 0.14062,0.0469 0.0781,0.0469 0.10938,0.15625 0.0469,0.10937 0.0625,0.29687 0.0312,0.17188 0.0312,0.4375 z m 11.83477,0.0937 q 0,0.21875 -0.0781,0.39063 -0.0625,0.15625 -0.1875,0.26562 -0.125,0.10938 -0.29688,0.15625 -0.15625,0.0469 -0.32812,0.0469 H 991.206 q -0.3125,0 -0.54688,-0.0625 -0.23437,-0.0625 -0.4375,-0.23438 -0.1875,-0.17187 -0.375,-0.45312 -0.17187,-0.28125 -0.40625,-0.73438 l -2.9375,-5.51562 q -0.25,-0.5 -0.51562,-1.0625 -0.26563,-0.57813 -0.46875,-1.10938 h -0.0156 q 0.0312,0.65625 0.0469,1.3125 0.0156,0.64063 0.0156,1.34375 v 6.15625 q 0,0.0937 -0.0469,0.17188 -0.0469,0.0781 -0.17188,0.125 -0.125,0.0469 -0.34375,0.0625 -0.20312,0.0312 -0.53125,0.0312 -0.3125,0 -0.53125,-0.0312 -0.20312,-0.0156 -0.32812,-0.0625 -0.10938,-0.0469 -0.15625,-0.125 -0.0469,-0.0781 -0.0469,-0.17188 v -10.59375 q 0,-0.42187 0.25,-0.625 0.25,-0.21875 0.625,-0.21875 h 1.28125 q 0.34375,0 0.57813,0.0625 0.23437,0.0469 0.42187,0.1875 0.1875,0.14063 0.34375,0.39063 0.17188,0.23437 0.34375,0.57812 l 2.29688,4.3125 q 0.20312,0.39063 0.39062,0.78125 0.20313,0.375 0.375,0.75 0.1875,0.375 0.35938,0.75 0.1875,0.35938 0.34375,0.71875 h 0.0156 q -0.0312,-0.64062 -0.0469,-1.32812 -0.0156,-0.70313 -0.0156,-1.32813 v -5.53125 q 0,-0.0937 0.0469,-0.15625 0.0625,-0.0781 0.1875,-0.125 0.125,-0.0625 0.32812,-0.0781 0.21875,-0.0312 0.54688,-0.0312 0.3125,0 0.51562,0.0312 0.21875,0.0156 0.32813,0.0781 0.10937,0.0469 0.15625,0.125 0.0469,0.0625 0.0469,0.15625 z m 10.72623,-0.9375 q 0,0.21875 -0.016,0.39063 -0.016,0.15625 -0.047,0.26562 -0.016,0.10938 -0.062,0.20313 -0.047,0.0781 -0.1563,0.1875 -0.094,0.0937 -0.3906,0.26562 -0.2813,0.15625 -0.7031,0.3125 -0.4063,0.14063 -0.9375,0.23438 -0.5313,0.10937 -1.1563,0.10937 -1.2031,0 -2.1875,-0.375 -0.9687,-0.375 -1.6562,-1.10937 -0.6719,-0.75 -1.0469,-1.85938 -0.3594,-1.10937 -0.3594,-2.57812 0,-1.5 0.3906,-2.67188 0.4063,-1.17187 1.125,-1.95312 0.7188,-0.79688 1.7188,-1.20313 1.0156,-0.42187 2.2344,-0.42187 0.4843,0 0.9375,0.0937 0.4687,0.0781 0.8437,0.21875 0.3906,0.125 0.7031,0.29687 0.3125,0.17188 0.4375,0.29688 0.125,0.125 0.1563,0.20312 0.047,0.0781 0.078,0.20313 0.031,0.125 0.047,0.3125 0.016,0.17187 0.016,0.42187 0,0.26563 -0.031,0.46875 -0.016,0.1875 -0.062,0.3125 -0.031,0.10938 -0.1094,0.17188 -0.062,0.0469 -0.1406,0.0469 -0.1407,0 -0.3438,-0.15625 -0.2031,-0.15625 -0.5469,-0.34375 -0.3281,-0.20312 -0.7968,-0.35937 -0.4532,-0.17188 -1.0938,-0.17188 -0.7031,0 -1.25,0.29688 -0.5469,0.28125 -0.9375,0.8125 -0.3906,0.53125 -0.5937,1.29687 -0.1875,0.75 -0.1875,1.70313 0,1.03125 0.2031,1.79687 0.2187,0.75 0.6094,1.25 0.4062,0.48438 0.9531,0.73438 0.5625,0.23437 1.2656,0.23437 0.6406,0 1.1094,-0.14062 0.4687,-0.15625 0.7969,-0.32813 0.3281,-0.1875 0.5468,-0.32812 0.2188,-0.15625 0.3282,-0.15625 0.094,0 0.1406,0.0469 0.062,0.0312 0.094,0.14063 0.047,0.10937 0.062,0.3125 0.016,0.1875 0.016,0.51562 z m 8.7028,0.84375 q 0,0.26563 -0.031,0.45313 -0.016,0.17187 -0.062,0.28125 -0.031,0.10937 -0.1093,0.15625 -0.062,0.0469 -0.1407,0.0469 h -5.9218 q -0.3125,0 -0.5157,-0.17187 -0.2031,-0.1875 -0.2031,-0.57813 V 354.4073 q 0,-0.40625 0.2031,-0.57812 0.2032,-0.17188 0.5157,-0.17188 h 5.875 q 0.094,0 0.1562,0.0469 0.062,0.0312 0.1094,0.15625 0.047,0.10937 0.062,0.29687 0.016,0.17188 0.016,0.4375 0,0.26563 -0.016,0.4375 -0.016,0.17188 -0.062,0.28125 -0.047,0.10938 -0.1094,0.17188 -0.062,0.0469 -0.1562,0.0469 h -4.2032 v 2.875 h 3.5625 q 0.078,0 0.1407,0.0469 0.078,0.0469 0.125,0.15625 0.047,0.10937 0.062,0.28125 0.031,0.17187 0.031,0.4375 0,0.26562 -0.031,0.4375 -0.016,0.17187 -0.062,0.28125 -0.047,0.0937 -0.125,0.14062 -0.062,0.0469 -0.1407,0.0469 h -3.5625 v 3.32812 h 4.25 q 0.078,0 0.1407,0.0469 0.078,0.0469 0.1093,0.15625 0.047,0.10937 0.062,0.29687 0.031,0.17188 0.031,0.4375 z"
       fill-rule="nonzero"
       id="path76" />
  </g>
</svg>
